<mxfile host="app.diagrams.net" modified="2024-01-26T01:20:32.030Z" agent="Mozilla/5.0 (Windows NT 10.0; Win64; x64) AppleWebKit/537.36 (KHTML, like Gecko) Chrome/120.0.0.0 Safari/537.36 Edg/120.0.0.0" etag="aFy4IZOkwQSm6QqxoP-8" version="23.0.1" type="github">
  <diagram name="Page-1" id="64c3da0e-402f-94eb-ee01-a36477274f13">
    <mxGraphModel dx="1431" dy="821" grid="1" gridSize="10" guides="1" tooltips="1" connect="1" arrows="1" fold="1" page="1" pageScale="1" pageWidth="1169" pageHeight="826" background="none" math="0" shadow="0">
      <root>
        <mxCell id="0" />
        <mxCell id="1" parent="0" />
        <mxCell id="4y_6O7tbpXYUQsu5mCmw-251" value="" style="shape=image;verticalLabelPosition=bottom;verticalAlign=top;imageAspect=0;aspect=fixed;image=data:image/svg+xml,PHN2ZyB4bWxucz0iaHR0cDovL3d3dy53My5vcmcvMjAwMC9zdmciIHZlcnNpb249IjEiIHZpZXdCb3g9IjAgMCA0OCA0OCIgZW5hYmxlLWJhY2tncm91bmQ9Im5ldyAwIDAgNDggNDgiPiYjeGE7ICAgIDxwb2x5Z29uIGZpbGw9IiNGRjk4MDAiIHBvaW50cz0iMjQsMzcgMTksMzEgMTksMjUgMjksMjUgMjksMzEiLz4mI3hhOyAgICA8ZyBmaWxsPSIjRkZBNzI2Ij4mI3hhOyAgICAgICAgPGNpcmNsZSBjeD0iMzMiIGN5PSIxOSIgcj0iMiIvPiYjeGE7ICAgICAgICA8Y2lyY2xlIGN4PSIxNSIgY3k9IjE5IiByPSIyIi8+JiN4YTsgICAgPC9nPiYjeGE7ICAgIDxwYXRoIGZpbGw9IiNGRkI3NEQiIGQ9Ik0zMywxM2MwLTcuNi0xOC01LTE4LDBjMCwxLjEsMCw1LjksMCw3YzAsNSw0LDksOSw5czktNCw5LTlDMzMsMTguOSwzMywxNC4xLDMzLDEzeiIvPiYjeGE7ICAgIDxwYXRoIGZpbGw9IiM0MjQyNDIiIGQ9Ik0yNCw0Yy02LjEsMC0xMCw0LjktMTAsMTFjMCwwLjgsMCwyLjMsMCwyLjNsMiwxLjd2LTVsMTItNGw0LDR2NWwyLTEuN2MwLDAsMC0xLjUsMC0yLjNjMC00LTEtOC02LTlsLTEtMiBIMjR6Ii8+JiN4YTsgICAgPGcgZmlsbD0iIzc4NDcxOSI+JiN4YTsgICAgICAgIDxjaXJjbGUgY3g9IjI4IiBjeT0iMTkiIHI9IjEiLz4mI3hhOyAgICAgICAgPGNpcmNsZSBjeD0iMjAiIGN5PSIxOSIgcj0iMSIvPiYjeGE7ICAgIDwvZz4mI3hhOyAgICA8cG9seWdvbiBmaWxsPSIjZmZmIiBwb2ludHM9IjI0LDQzIDE5LDMxIDI0LDMyIDI5LDMxIi8+JiN4YTsgICAgPHBvbHlnb24gZmlsbD0iI0QzMkYyRiIgcG9pbnRzPSIyMywzNSAyMi4zLDM5LjUgMjQsNDMuNSAyNS43LDM5LjUgMjUsMzUgMjYsMzQgMjQsMzIgMjIsMzQiLz4mI3hhOyAgICA8cGF0aCBmaWxsPSIjNTQ2RTdBIiBkPSJNMjksMzFMMjksMzFsLTUsMTJsLTUtMTJjMCwwLTExLDItMTEsMTNoMzJDNDAsMzMsMjksMzEsMjksMzF6Ii8+JiN4YTs8L3N2Zz4=;" vertex="1" parent="1">
          <mxGeometry x="10.75" y="134.75" width="20.5" height="20.5" as="geometry" />
        </mxCell>
        <mxCell id="4y_6O7tbpXYUQsu5mCmw-252" value="Rathana&#39;s Daily Job" style="text;html=1;strokeColor=none;fillColor=none;align=left;verticalAlign=middle;whiteSpace=wrap;rounded=0;fontStyle=1;fontSize=19;fontColor=#0000FF;" vertex="1" parent="1">
          <mxGeometry x="2.5" width="200" height="30" as="geometry" />
        </mxCell>
        <mxCell id="4y_6O7tbpXYUQsu5mCmw-257" value="" style="shape=image;verticalLabelPosition=bottom;verticalAlign=top;imageAspect=0;aspect=fixed;image=data:image/svg+xml,PHN2ZyB4bWxucz0iaHR0cDovL3d3dy53My5vcmcvMjAwMC9zdmciIHZlcnNpb249IjEiIHZpZXdCb3g9IjAgMCA0OCA0OCIgZW5hYmxlLWJhY2tncm91bmQ9Im5ldyAwIDAgNDggNDgiPiYjeGE7ICAgIDxnIGZpbGw9IiMzNzQ3NEYiPiYjeGE7ICAgICAgICA8cGF0aCBkPSJNMzguNSw0NC42bC00LTRsMi4xLTIuMWw0LDRjMC42LDAuNiwwLjYsMS41LDAsMi4xbDAsMEM0MC4xLDQ1LjEsMzkuMSw0NS4xLDM4LjUsNDQuNnoiLz4mI3hhOyAgICAgICAgPHBhdGggZD0iTTkuNSw0NC42bDQtNGwtMi4xLTIuMWwtNCw0Yy0wLjYsMC42LTAuNiwxLjUsMCwyLjFsMCwwQzcuOSw0NS4xLDguOSw0NS4xLDkuNSw0NC42eiIvPiYjeGE7ICAgIDwvZz4mI3hhOyAgICA8Y2lyY2xlIGZpbGw9IiNDNjI4MjgiIGN4PSIyNCIgY3k9IjI0IiByPSIyMCIvPiYjeGE7ICAgIDxjaXJjbGUgZmlsbD0iI2VlZSIgY3g9IjI0IiBjeT0iMjQiIHI9IjE2Ii8+JiN4YTsgICAgPHJlY3QgeD0iMTkiIHk9IjIyLjEiIHRyYW5zZm9ybT0ibWF0cml4KC0uNzA3IC0uNzA3IC43MDcgLS43MDcgMTIuOTA0IDYyLjUzNykiIGZpbGw9IiNFNTM5MzUiIHdpZHRoPSIuOCIgaGVpZ2h0PSIxMyIvPiYjeGE7ICAgIDxyZWN0IHg9IjIzIiB5PSIxMSIgd2lkdGg9IjIiIGhlaWdodD0iMTMiLz4mI3hhOyAgICA8cmVjdCB4PSIyNi4xIiB5PSIyMi43IiB0cmFuc2Zvcm09Im1hdHJpeCgtLjcwNyAuNzA3IC0uNzA3IC0uNzA3IDY1Ljc4NyAyNy4yNSkiIHdpZHRoPSIyLjMiIGhlaWdodD0iOS4yIi8+JiN4YTsgICAgPGNpcmNsZSBjeD0iMjQiIGN5PSIyNCIgcj0iMiIvPiYjeGE7ICAgIDxjaXJjbGUgZmlsbD0iI0M2MjgyOCIgY3g9IjI0IiBjeT0iMjQiIHI9IjEiLz4mI3hhOyAgICA8cmVjdCB4PSIyMiIgeT0iMSIgZmlsbD0iIzM3NDc0RiIgd2lkdGg9IjQiIGhlaWdodD0iMyIvPiYjeGE7ICAgIDxnIGZpbGw9IiMzNzQ3NEYiPiYjeGE7ICAgICAgICA8cGF0aCBkPSJNNDQuNCwxNi4yYzIuNS0zLjUsMi4xLTguNC0xLTExLjVjLTMuMS0zLjEtOC0zLjUtMTEuNS0xTDQ0LjQsMTYuMnoiLz4mI3hhOyAgICAgICAgPHBhdGggZD0iTTMuNiwxNi4yYy0yLjUtMy41LTIuMS04LjQsMS0xMS41YzMuMS0zLjEsOC0zLjUsMTEuNS0xTDMuNiwxNi4yeiIvPiYjeGE7ICAgIDwvZz4mI3hhOzwvc3ZnPg==;" vertex="1" parent="1">
          <mxGeometry x="12.25" y="76" width="18" height="18" as="geometry" />
        </mxCell>
        <mxCell id="4y_6O7tbpXYUQsu5mCmw-258" value="7:15 AM - 7:20 AM" style="text;html=1;strokeColor=none;fillColor=none;align=left;verticalAlign=middle;whiteSpace=wrap;rounded=0;" vertex="1" parent="1">
          <mxGeometry x="45" y="70" width="115" height="30" as="geometry" />
        </mxCell>
        <mxCell id="4y_6O7tbpXYUQsu5mCmw-259" value="Rathana Lan" style="text;html=1;strokeColor=none;fillColor=none;align=left;verticalAlign=middle;whiteSpace=wrap;rounded=0;fontStyle=1;labelBorderColor=none;fontColor=#000066;" vertex="1" parent="1">
          <mxGeometry x="45" y="130" width="115" height="30" as="geometry" />
        </mxCell>
        <mxCell id="4y_6O7tbpXYUQsu5mCmw-260" value="Come to work early for eating breakfast.&lt;br&gt;Check Email&lt;br&gt;Check Line Group&lt;br&gt;Prepare PPE&lt;br&gt;Self location 5s + Open Desktop" style="text;html=1;strokeColor=none;fillColor=none;align=left;verticalAlign=top;whiteSpace=wrap;rounded=0;fontColor=#000066;" vertex="1" parent="1">
          <mxGeometry x="45" y="185" width="222" height="90" as="geometry" />
        </mxCell>
        <mxCell id="4y_6O7tbpXYUQsu5mCmw-261" value="" style="shape=image;verticalLabelPosition=bottom;verticalAlign=top;imageAspect=0;aspect=fixed;image=data:image/svg+xml,PHN2ZyB4bWxucz0iaHR0cDovL3d3dy53My5vcmcvMjAwMC9zdmciIHZlcnNpb249IjEiIHZpZXdCb3g9IjAgMCA0OCA0OCIgZW5hYmxlLWJhY2tncm91bmQ9Im5ldyAwIDAgNDggNDgiPiYjeGE7ICAgIDxwYXRoIGZpbGw9IiM0NTVBNjQiIGQ9Ik0zNiw0SDI2YzAsMS4xLTAuOSwyLTIsMnMtMi0wLjktMi0ySDEyQzkuOCw0LDgsNS44LDgsOHYzMmMwLDIuMiwxLjgsNCw0LDRoMjRjMi4yLDAsNC0xLjgsNC00VjggQzQwLDUuOCwzOC4yLDQsMzYsNHoiLz4mI3hhOyAgICA8cGF0aCBmaWxsPSIjZmZmIiBkPSJNMzYsNDFIMTJjLTAuNiwwLTEtMC40LTEtMVY4YzAtMC42LDAuNC0xLDEtMWgyNGMwLjYsMCwxLDAuNCwxLDF2MzJDMzcsNDAuNiwzNi42LDQxLDM2LDQxeiIvPiYjeGE7ICAgIDxnIGZpbGw9IiM5MEE0QUUiPiYjeGE7ICAgICAgICA8cGF0aCBkPSJNMjYsNGMwLDEuMS0wLjksMi0yLDJzLTItMC45LTItMmgtN3Y0YzAsMS4xLDAuOSwyLDIsMmgxNGMxLjEsMCwyLTAuOSwyLTJWNEgyNnoiLz4mI3hhOyAgICAgICAgPHBhdGggZD0iTTI0LDBjLTIuMiwwLTQsMS44LTQsNHMxLjgsNCw0LDRzNC0xLjgsNC00UzI2LjIsMCwyNCwweiBNMjQsNmMtMS4xLDAtMi0wLjktMi0yczAuOS0yLDItMnMyLDAuOSwyLDIgUzI1LjEsNiwyNCw2eiIvPiYjeGE7ICAgIDwvZz4mI3hhOyAgICA8cG9seWdvbiBmaWxsPSIjNENBRjUwIiBwb2ludHM9IjMwLjYsMTguNiAyMS42LDI3LjYgMTcuNCwyMy4zIDE0LjksMjUuOCAyMS43LDMyLjUgMzMuMSwyMS4xIi8+JiN4YTs8L3N2Zz4=;" vertex="1" parent="1">
          <mxGeometry x="13.75" y="250" width="15" height="15" as="geometry" />
        </mxCell>
        <mxCell id="4y_6O7tbpXYUQsu5mCmw-262" value="" style="shape=image;verticalLabelPosition=bottom;verticalAlign=top;imageAspect=0;aspect=fixed;image=data:image/svg+xml,PHN2ZyB4bWxucz0iaHR0cDovL3d3dy53My5vcmcvMjAwMC9zdmciIHZlcnNpb249IjEiIHZpZXdCb3g9IjAgMCA0OCA0OCIgZW5hYmxlLWJhY2tncm91bmQ9Im5ldyAwIDAgNDggNDgiPiYjeGE7ICAgIDxwYXRoIGZpbGw9IiMwMDk2ODgiIGQ9Ik0zNywzOUgxMWwtNiw2VjExYzAtMy4zLDIuNy02LDYtNmgyNmMzLjMsMCw2LDIuNyw2LDZ2MjJDNDMsMzYuMyw0MC4zLDM5LDM3LDM5eiIvPiYjeGE7ICAgIDxnIGZpbGw9IiNmZmYiPiYjeGE7ICAgICAgICA8Y2lyY2xlIGN4PSIyNCIgY3k9IjIyIiByPSIzIi8+JiN4YTsgICAgICAgIDxjaXJjbGUgY3g9IjM0IiBjeT0iMjIiIHI9IjMiLz4mI3hhOyAgICAgICAgPGNpcmNsZSBjeD0iMTQiIGN5PSIyMiIgcj0iMyIvPiYjeGE7ICAgIDwvZz4mI3hhOzwvc3ZnPg==;" vertex="1" parent="1">
          <mxGeometry x="14.75" y="221" width="12" height="12" as="geometry" />
        </mxCell>
        <mxCell id="4y_6O7tbpXYUQsu5mCmw-263" value="" style="shape=image;verticalLabelPosition=bottom;verticalAlign=top;imageAspect=0;aspect=fixed;image=data:image/svg+xml,PHN2ZyB4bWxucz0iaHR0cDovL3d3dy53My5vcmcvMjAwMC9zdmciIHZlcnNpb249IjEiIHZpZXdCb3g9IjAgMCA0OCA0OCIgZW5hYmxlLWJhY2tncm91bmQ9Im5ldyAwIDAgNDggNDgiPiYjeGE7ICAgIDxwYXRoIGZpbGw9IiM0MEM0RkYiIGQ9Ik00Mi45LDYuM0M0My42LDcuNCw0NCw4LjYsNDQsMTBjMCwzLjktMy4xLDctNyw3Yy0wLjcsMC0xLjMtMC4xLTEuOS0wLjNjMS4yLDIsMy40LDMuMyw1LjksMy4zIGMzLjksMCw3LTMuMSw3LTdDNDgsOS44LDQ1LjksNy4xLDQyLjksNi4zeiIvPiYjeGE7ICAgIDxnIGZpbGw9IiNCMzlEREIiPiYjeGE7ICAgICAgICA8Y2lyY2xlIGN4PSIzMSIgY3k9IjE5IiByPSIyIi8+JiN4YTsgICAgICAgIDxjaXJjbGUgY3g9IjEzIiBjeT0iMTkiIHI9IjIiLz4mI3hhOyAgICAgICAgPHBvbHlnb24gcG9pbnRzPSIyMiwzNyAxNywzMSAxNywyNSAyNywyNSAyNywzMSIvPiYjeGE7ICAgIDwvZz4mI3hhOyAgICA8cGF0aCBmaWxsPSIjRDFDNEU5IiBkPSJNMzEsMTNjMC03LjYtMTgtNS0xOCwwYzAsMS4xLDAsNS45LDAsN2MwLDUsNCw5LDksOXM5LTQsOS05QzMxLDE4LjksMzEsMTQuMSwzMSwxM3oiLz4mI3hhOyAgICA8ZyBmaWxsPSIjNjczQUI3Ij4mI3hhOyAgICAgICAgPGNpcmNsZSBjeD0iMjYiIGN5PSIxOSIgcj0iMSIvPiYjeGE7ICAgICAgICA8Y2lyY2xlIGN4PSIxOCIgY3k9IjE5IiByPSIxIi8+JiN4YTsgICAgICAgIDxwYXRoIGQ9Ik0yMiw0Yy02LjEsMC0xMCw0LjktMTAsMTFjMCwwLjgsMCwyLjMsMCwyLjNsMiwxLjd2LTVsMTItNGw0LDR2NWwyLTEuN2MwLDAsMC0xLjUsMC0yLjNjMC00LTEtOC02LTlsLTEtMiBIMjJ6Ii8+JiN4YTsgICAgICAgIDxwYXRoIGQ9Ik0yNywzMUwyNywzMWMwLDAtMiwxLTUsMXMtNS0xLTUtMVM2LDMzLDYsNDRoMzJDMzgsMzMsMjcsMzEsMjcsMzF6Ii8+JiN4YTsgICAgPC9nPiYjeGE7PC9zdmc+;" vertex="1" parent="1">
          <mxGeometry x="10.75" y="190" width="18" height="18" as="geometry" />
        </mxCell>
        <mxCell id="4y_6O7tbpXYUQsu5mCmw-264" value="Preparation" style="text;html=1;strokeColor=none;fillColor=none;align=left;verticalAlign=middle;whiteSpace=wrap;rounded=0;fontStyle=1;fontColor=#FF0080;" vertex="1" parent="1">
          <mxGeometry x="10.75" y="160" width="115" height="30" as="geometry" />
        </mxCell>
        <mxCell id="4y_6O7tbpXYUQsu5mCmw-265" value="Location" style="text;html=1;strokeColor=none;fillColor=none;align=left;verticalAlign=middle;whiteSpace=wrap;rounded=0;fontStyle=1;fontColor=#009900;" vertex="1" parent="1">
          <mxGeometry x="10.75" y="275" width="115" height="30" as="geometry" />
        </mxCell>
        <mxCell id="4y_6O7tbpXYUQsu5mCmw-266" value="Self table &lt;b&gt;&lt;font color=&quot;#ff0000&quot;&gt;&amp;lt;Office&amp;gt;&lt;/font&gt;&lt;/b&gt;" style="text;html=1;strokeColor=none;fillColor=none;align=left;verticalAlign=top;whiteSpace=wrap;rounded=0;fontColor=#000066;" vertex="1" parent="1">
          <mxGeometry x="45" y="295" width="222" height="30" as="geometry" />
        </mxCell>
        <mxCell id="4y_6O7tbpXYUQsu5mCmw-268" value="Member" style="text;html=1;strokeColor=none;fillColor=none;align=left;verticalAlign=middle;whiteSpace=wrap;rounded=0;fontStyle=1;fontColor=#FF00FF;" vertex="1" parent="1">
          <mxGeometry x="10" y="100" width="115" height="30" as="geometry" />
        </mxCell>
        <mxCell id="4y_6O7tbpXYUQsu5mCmw-271" value="Time" style="text;html=1;strokeColor=none;fillColor=none;align=left;verticalAlign=middle;whiteSpace=wrap;rounded=0;fontStyle=1;fontColor=#0000CC;" vertex="1" parent="1">
          <mxGeometry x="10" y="40" width="115" height="30" as="geometry" />
        </mxCell>
        <mxCell id="4y_6O7tbpXYUQsu5mCmw-272" value="" style="shape=image;verticalLabelPosition=bottom;verticalAlign=top;imageAspect=0;aspect=fixed;image=data:image/svg+xml,PHN2ZyB4bWxucz0iaHR0cDovL3d3dy53My5vcmcvMjAwMC9zdmciIHZlcnNpb249IjEiIHZpZXdCb3g9IjAgMCA0OCA0OCIgZW5hYmxlLWJhY2tncm91bmQ9Im5ldyAwIDAgNDggNDgiPiYjeGE7ICAgIDxwb2x5Z29uIGZpbGw9IiNGRjk4MDAiIHBvaW50cz0iMjQsMzcgMTksMzEgMTksMjUgMjksMjUgMjksMzEiLz4mI3hhOyAgICA8ZyBmaWxsPSIjRkZBNzI2Ij4mI3hhOyAgICAgICAgPGNpcmNsZSBjeD0iMzMiIGN5PSIxOSIgcj0iMiIvPiYjeGE7ICAgICAgICA8Y2lyY2xlIGN4PSIxNSIgY3k9IjE5IiByPSIyIi8+JiN4YTsgICAgPC9nPiYjeGE7ICAgIDxwYXRoIGZpbGw9IiNGRkI3NEQiIGQ9Ik0zMywxM2MwLTcuNi0xOC01LTE4LDBjMCwxLjEsMCw1LjksMCw3YzAsNSw0LDksOSw5czktNCw5LTlDMzMsMTguOSwzMywxNC4xLDMzLDEzeiIvPiYjeGE7ICAgIDxwYXRoIGZpbGw9IiM0MjQyNDIiIGQ9Ik0yNCw0Yy02LjEsMC0xMCw0LjktMTAsMTFjMCwwLjgsMCwyLjMsMCwyLjNsMiwxLjd2LTVsMTItNGw0LDR2NWwyLTEuN2MwLDAsMC0xLjUsMC0yLjNjMC00LTEtOC02LTlsLTEtMiBIMjR6Ii8+JiN4YTsgICAgPGcgZmlsbD0iIzc4NDcxOSI+JiN4YTsgICAgICAgIDxjaXJjbGUgY3g9IjI4IiBjeT0iMTkiIHI9IjEiLz4mI3hhOyAgICAgICAgPGNpcmNsZSBjeD0iMjAiIGN5PSIxOSIgcj0iMSIvPiYjeGE7ICAgIDwvZz4mI3hhOyAgICA8cG9seWdvbiBmaWxsPSIjZmZmIiBwb2ludHM9IjI0LDQzIDE5LDMxIDI0LDMyIDI5LDMxIi8+JiN4YTsgICAgPHBvbHlnb24gZmlsbD0iI0QzMkYyRiIgcG9pbnRzPSIyMywzNSAyMi4zLDM5LjUgMjQsNDMuNSAyNS43LDM5LjUgMjUsMzUgMjYsMzQgMjQsMzIgMjIsMzQiLz4mI3hhOyAgICA8cGF0aCBmaWxsPSIjNTQ2RTdBIiBkPSJNMjksMzFMMjksMzFsLTUsMTJsLTUtMTJjMCwwLTExLDItMTEsMTNoMzJDNDAsMzMsMjksMzEsMjksMzF6Ii8+JiN4YTs8L3N2Zz4=;" vertex="1" parent="1">
          <mxGeometry x="280.75" y="135.75" width="20.5" height="20.5" as="geometry" />
        </mxCell>
        <mxCell id="4y_6O7tbpXYUQsu5mCmw-273" value="" style="shape=image;verticalLabelPosition=bottom;verticalAlign=top;imageAspect=0;aspect=fixed;image=data:image/svg+xml,PHN2ZyB4bWxucz0iaHR0cDovL3d3dy53My5vcmcvMjAwMC9zdmciIHZlcnNpb249IjEiIHZpZXdCb3g9IjAgMCA0OCA0OCIgZW5hYmxlLWJhY2tncm91bmQ9Im5ldyAwIDAgNDggNDgiPiYjeGE7ICAgIDxnIGZpbGw9IiMzNzQ3NEYiPiYjeGE7ICAgICAgICA8cGF0aCBkPSJNMzguNSw0NC42bC00LTRsMi4xLTIuMWw0LDRjMC42LDAuNiwwLjYsMS41LDAsMi4xbDAsMEM0MC4xLDQ1LjEsMzkuMSw0NS4xLDM4LjUsNDQuNnoiLz4mI3hhOyAgICAgICAgPHBhdGggZD0iTTkuNSw0NC42bDQtNGwtMi4xLTIuMWwtNCw0Yy0wLjYsMC42LTAuNiwxLjUsMCwyLjFsMCwwQzcuOSw0NS4xLDguOSw0NS4xLDkuNSw0NC42eiIvPiYjeGE7ICAgIDwvZz4mI3hhOyAgICA8Y2lyY2xlIGZpbGw9IiNDNjI4MjgiIGN4PSIyNCIgY3k9IjI0IiByPSIyMCIvPiYjeGE7ICAgIDxjaXJjbGUgZmlsbD0iI2VlZSIgY3g9IjI0IiBjeT0iMjQiIHI9IjE2Ii8+JiN4YTsgICAgPHJlY3QgeD0iMTkiIHk9IjIyLjEiIHRyYW5zZm9ybT0ibWF0cml4KC0uNzA3IC0uNzA3IC43MDcgLS43MDcgMTIuOTA0IDYyLjUzNykiIGZpbGw9IiNFNTM5MzUiIHdpZHRoPSIuOCIgaGVpZ2h0PSIxMyIvPiYjeGE7ICAgIDxyZWN0IHg9IjIzIiB5PSIxMSIgd2lkdGg9IjIiIGhlaWdodD0iMTMiLz4mI3hhOyAgICA8cmVjdCB4PSIyNi4xIiB5PSIyMi43IiB0cmFuc2Zvcm09Im1hdHJpeCgtLjcwNyAuNzA3IC0uNzA3IC0uNzA3IDY1Ljc4NyAyNy4yNSkiIHdpZHRoPSIyLjMiIGhlaWdodD0iOS4yIi8+JiN4YTsgICAgPGNpcmNsZSBjeD0iMjQiIGN5PSIyNCIgcj0iMiIvPiYjeGE7ICAgIDxjaXJjbGUgZmlsbD0iI0M2MjgyOCIgY3g9IjI0IiBjeT0iMjQiIHI9IjEiLz4mI3hhOyAgICA8cmVjdCB4PSIyMiIgeT0iMSIgZmlsbD0iIzM3NDc0RiIgd2lkdGg9IjQiIGhlaWdodD0iMyIvPiYjeGE7ICAgIDxnIGZpbGw9IiMzNzQ3NEYiPiYjeGE7ICAgICAgICA8cGF0aCBkPSJNNDQuNCwxNi4yYzIuNS0zLjUsMi4xLTguNC0xLTExLjVjLTMuMS0zLjEtOC0zLjUtMTEuNS0xTDQ0LjQsMTYuMnoiLz4mI3hhOyAgICAgICAgPHBhdGggZD0iTTMuNiwxNi4yYy0yLjUtMy41LTIuMS04LjQsMS0xMS41YzMuMS0zLjEsOC0zLjUsMTEuNS0xTDMuNiwxNi4yeiIvPiYjeGE7ICAgIDwvZz4mI3hhOzwvc3ZnPg==;" vertex="1" parent="1">
          <mxGeometry x="282.25" y="77" width="18" height="18" as="geometry" />
        </mxCell>
        <mxCell id="4y_6O7tbpXYUQsu5mCmw-274" value="7:25 AM - 7:30 AM" style="text;html=1;strokeColor=none;fillColor=none;align=left;verticalAlign=middle;whiteSpace=wrap;rounded=0;" vertex="1" parent="1">
          <mxGeometry x="315" y="71" width="115" height="30" as="geometry" />
        </mxCell>
        <mxCell id="4y_6O7tbpXYUQsu5mCmw-275" value="Rathana Lan" style="text;html=1;strokeColor=none;fillColor=none;align=left;verticalAlign=middle;whiteSpace=wrap;rounded=0;fontStyle=1;labelBorderColor=none;fontColor=#000066;" vertex="1" parent="1">
          <mxGeometry x="315" y="131" width="115" height="30" as="geometry" />
        </mxCell>
        <mxCell id="4y_6O7tbpXYUQsu5mCmw-276" value="Stand up to respect the&amp;nbsp;&lt;br&gt;national anthem of kingdom of&amp;nbsp;&lt;br&gt;Cambodia" style="text;html=1;strokeColor=none;fillColor=none;align=left;verticalAlign=top;whiteSpace=wrap;rounded=0;fontColor=#000066;" vertex="1" parent="1">
          <mxGeometry x="315" y="186" width="222" height="90" as="geometry" />
        </mxCell>
        <mxCell id="4y_6O7tbpXYUQsu5mCmw-280" value="Preparation" style="text;html=1;strokeColor=none;fillColor=none;align=left;verticalAlign=middle;whiteSpace=wrap;rounded=0;fontStyle=1;fontColor=#FF0080;" vertex="1" parent="1">
          <mxGeometry x="280.75" y="161" width="115" height="30" as="geometry" />
        </mxCell>
        <mxCell id="4y_6O7tbpXYUQsu5mCmw-281" value="Location" style="text;html=1;strokeColor=none;fillColor=none;align=left;verticalAlign=middle;whiteSpace=wrap;rounded=0;fontStyle=1;fontColor=#009900;" vertex="1" parent="1">
          <mxGeometry x="280.75" y="245" width="115" height="30" as="geometry" />
        </mxCell>
        <mxCell id="4y_6O7tbpXYUQsu5mCmw-282" value="Self table &lt;b&gt;&lt;font color=&quot;#ff0000&quot;&gt;&amp;lt;Office&amp;gt;&lt;/font&gt;&lt;/b&gt;" style="text;html=1;strokeColor=none;fillColor=none;align=left;verticalAlign=top;whiteSpace=wrap;rounded=0;fontColor=#000066;" vertex="1" parent="1">
          <mxGeometry x="315" y="265" width="222" height="30" as="geometry" />
        </mxCell>
        <mxCell id="4y_6O7tbpXYUQsu5mCmw-283" value="Member" style="text;html=1;strokeColor=none;fillColor=none;align=left;verticalAlign=middle;whiteSpace=wrap;rounded=0;fontStyle=1;fontColor=#FF00FF;" vertex="1" parent="1">
          <mxGeometry x="280" y="101" width="115" height="30" as="geometry" />
        </mxCell>
        <mxCell id="4y_6O7tbpXYUQsu5mCmw-284" value="Time" style="text;html=1;strokeColor=none;fillColor=none;align=left;verticalAlign=middle;whiteSpace=wrap;rounded=0;fontStyle=1;fontColor=#0000CC;" vertex="1" parent="1">
          <mxGeometry x="280" y="41" width="115" height="30" as="geometry" />
        </mxCell>
        <mxCell id="4y_6O7tbpXYUQsu5mCmw-285" value="" style="shape=image;verticalLabelPosition=bottom;verticalAlign=top;imageAspect=0;aspect=fixed;image=data:image/svg+xml,PHN2ZyB4bWxucz0iaHR0cDovL3d3dy53My5vcmcvMjAwMC9zdmciIHZlcnNpb249IjEiIHZpZXdCb3g9IjAgMCA0OCA0OCIgZW5hYmxlLWJhY2tncm91bmQ9Im5ldyAwIDAgNDggNDgiPiYjeGE7ICAgIDxnIGZpbGw9IiMzRjUxQjUiPiYjeGE7ICAgICAgICA8cG9seWdvbiBwb2ludHM9IjI0LDQgMzUuNywxOCAxMi4zLDE4Ii8+JiN4YTsgICAgICAgIDxyZWN0IHg9IjIwIiB5PSIxNSIgd2lkdGg9IjgiIGhlaWdodD0iMjciLz4mI3hhOyAgICA8L2c+JiN4YTs8L3N2Zz4=;" vertex="1" parent="1">
          <mxGeometry x="281" y="191" width="19" height="19" as="geometry" />
        </mxCell>
        <mxCell id="4y_6O7tbpXYUQsu5mCmw-297" value="" style="shape=image;verticalLabelPosition=bottom;verticalAlign=top;imageAspect=0;aspect=fixed;image=data:image/svg+xml,PHN2ZyB4bWxucz0iaHR0cDovL3d3dy53My5vcmcvMjAwMC9zdmciIHZlcnNpb249IjEiIHZpZXdCb3g9IjAgMCA0OCA0OCIgZW5hYmxlLWJhY2tncm91bmQ9Im5ldyAwIDAgNDggNDgiPiYjeGE7ICAgIDxwb2x5Z29uIGZpbGw9IiNGRjk4MDAiIHBvaW50cz0iMjQsMzcgMTksMzEgMTksMjUgMjksMjUgMjksMzEiLz4mI3hhOyAgICA8ZyBmaWxsPSIjRkZBNzI2Ij4mI3hhOyAgICAgICAgPGNpcmNsZSBjeD0iMzMiIGN5PSIxOSIgcj0iMiIvPiYjeGE7ICAgICAgICA8Y2lyY2xlIGN4PSIxNSIgY3k9IjE5IiByPSIyIi8+JiN4YTsgICAgPC9nPiYjeGE7ICAgIDxwYXRoIGZpbGw9IiNGRkI3NEQiIGQ9Ik0zMywxM2MwLTcuNi0xOC01LTE4LDBjMCwxLjEsMCw1LjksMCw3YzAsNSw0LDksOSw5czktNCw5LTlDMzMsMTguOSwzMywxNC4xLDMzLDEzeiIvPiYjeGE7ICAgIDxwYXRoIGZpbGw9IiM0MjQyNDIiIGQ9Ik0yNCw0Yy02LjEsMC0xMCw0LjktMTAsMTFjMCwwLjgsMCwyLjMsMCwyLjNsMiwxLjd2LTVsMTItNGw0LDR2NWwyLTEuN2MwLDAsMC0xLjUsMC0yLjNjMC00LTEtOC02LTlsLTEtMiBIMjR6Ii8+JiN4YTsgICAgPGcgZmlsbD0iIzc4NDcxOSI+JiN4YTsgICAgICAgIDxjaXJjbGUgY3g9IjI4IiBjeT0iMTkiIHI9IjEiLz4mI3hhOyAgICAgICAgPGNpcmNsZSBjeD0iMjAiIGN5PSIxOSIgcj0iMSIvPiYjeGE7ICAgIDwvZz4mI3hhOyAgICA8cG9seWdvbiBmaWxsPSIjZmZmIiBwb2ludHM9IjI0LDQzIDE5LDMxIDI0LDMyIDI5LDMxIi8+JiN4YTsgICAgPHBvbHlnb24gZmlsbD0iI0QzMkYyRiIgcG9pbnRzPSIyMywzNSAyMi4zLDM5LjUgMjQsNDMuNSAyNS43LDM5LjUgMjUsMzUgMjYsMzQgMjQsMzIgMjIsMzQiLz4mI3hhOyAgICA8cGF0aCBmaWxsPSIjNTQ2RTdBIiBkPSJNMjksMzFMMjksMzFsLTUsMTJsLTUtMTJjMCwwLTExLDItMTEsMTNoMzJDNDAsMzMsMjksMzEsMjksMzF6Ii8+JiN4YTs8L3N2Zz4=;" vertex="1" parent="1">
          <mxGeometry x="520.75" y="135.75" width="20.5" height="20.5" as="geometry" />
        </mxCell>
        <mxCell id="4y_6O7tbpXYUQsu5mCmw-298" value="" style="shape=image;verticalLabelPosition=bottom;verticalAlign=top;imageAspect=0;aspect=fixed;image=data:image/svg+xml,PHN2ZyB4bWxucz0iaHR0cDovL3d3dy53My5vcmcvMjAwMC9zdmciIHZlcnNpb249IjEiIHZpZXdCb3g9IjAgMCA0OCA0OCIgZW5hYmxlLWJhY2tncm91bmQ9Im5ldyAwIDAgNDggNDgiPiYjeGE7ICAgIDxnIGZpbGw9IiMzNzQ3NEYiPiYjeGE7ICAgICAgICA8cGF0aCBkPSJNMzguNSw0NC42bC00LTRsMi4xLTIuMWw0LDRjMC42LDAuNiwwLjYsMS41LDAsMi4xbDAsMEM0MC4xLDQ1LjEsMzkuMSw0NS4xLDM4LjUsNDQuNnoiLz4mI3hhOyAgICAgICAgPHBhdGggZD0iTTkuNSw0NC42bDQtNGwtMi4xLTIuMWwtNCw0Yy0wLjYsMC42LTAuNiwxLjUsMCwyLjFsMCwwQzcuOSw0NS4xLDguOSw0NS4xLDkuNSw0NC42eiIvPiYjeGE7ICAgIDwvZz4mI3hhOyAgICA8Y2lyY2xlIGZpbGw9IiNDNjI4MjgiIGN4PSIyNCIgY3k9IjI0IiByPSIyMCIvPiYjeGE7ICAgIDxjaXJjbGUgZmlsbD0iI2VlZSIgY3g9IjI0IiBjeT0iMjQiIHI9IjE2Ii8+JiN4YTsgICAgPHJlY3QgeD0iMTkiIHk9IjIyLjEiIHRyYW5zZm9ybT0ibWF0cml4KC0uNzA3IC0uNzA3IC43MDcgLS43MDcgMTIuOTA0IDYyLjUzNykiIGZpbGw9IiNFNTM5MzUiIHdpZHRoPSIuOCIgaGVpZ2h0PSIxMyIvPiYjeGE7ICAgIDxyZWN0IHg9IjIzIiB5PSIxMSIgd2lkdGg9IjIiIGhlaWdodD0iMTMiLz4mI3hhOyAgICA8cmVjdCB4PSIyNi4xIiB5PSIyMi43IiB0cmFuc2Zvcm09Im1hdHJpeCgtLjcwNyAuNzA3IC0uNzA3IC0uNzA3IDY1Ljc4NyAyNy4yNSkiIHdpZHRoPSIyLjMiIGhlaWdodD0iOS4yIi8+JiN4YTsgICAgPGNpcmNsZSBjeD0iMjQiIGN5PSIyNCIgcj0iMiIvPiYjeGE7ICAgIDxjaXJjbGUgZmlsbD0iI0M2MjgyOCIgY3g9IjI0IiBjeT0iMjQiIHI9IjEiLz4mI3hhOyAgICA8cmVjdCB4PSIyMiIgeT0iMSIgZmlsbD0iIzM3NDc0RiIgd2lkdGg9IjQiIGhlaWdodD0iMyIvPiYjeGE7ICAgIDxnIGZpbGw9IiMzNzQ3NEYiPiYjeGE7ICAgICAgICA8cGF0aCBkPSJNNDQuNCwxNi4yYzIuNS0zLjUsMi4xLTguNC0xLTExLjVjLTMuMS0zLjEtOC0zLjUtMTEuNS0xTDQ0LjQsMTYuMnoiLz4mI3hhOyAgICAgICAgPHBhdGggZD0iTTMuNiwxNi4yYy0yLjUtMy41LTIuMS04LjQsMS0xMS41YzMuMS0zLjEsOC0zLjUsMTEuNS0xTDMuNiwxNi4yeiIvPiYjeGE7ICAgIDwvZz4mI3hhOzwvc3ZnPg==;" vertex="1" parent="1">
          <mxGeometry x="522.25" y="77" width="18" height="18" as="geometry" />
        </mxCell>
        <mxCell id="4y_6O7tbpXYUQsu5mCmw-299" value="7:25 AM - 7:30 AM" style="text;html=1;strokeColor=none;fillColor=none;align=left;verticalAlign=middle;whiteSpace=wrap;rounded=0;" vertex="1" parent="1">
          <mxGeometry x="555" y="71" width="115" height="29" as="geometry" />
        </mxCell>
        <mxCell id="4y_6O7tbpXYUQsu5mCmw-300" value="Rathana Lan" style="text;html=1;strokeColor=none;fillColor=none;align=left;verticalAlign=middle;whiteSpace=wrap;rounded=0;fontStyle=1;labelBorderColor=none;fontColor=#000066;" vertex="1" parent="1">
          <mxGeometry x="555" y="131" width="115" height="30" as="geometry" />
        </mxCell>
        <mxCell id="4y_6O7tbpXYUQsu5mCmw-301" value="Do exercise" style="text;html=1;strokeColor=none;fillColor=none;align=left;verticalAlign=top;whiteSpace=wrap;rounded=0;fontColor=#000066;" vertex="1" parent="1">
          <mxGeometry x="555" y="186" width="222" height="34" as="geometry" />
        </mxCell>
        <mxCell id="4y_6O7tbpXYUQsu5mCmw-302" value="Preparation" style="text;html=1;strokeColor=none;fillColor=none;align=left;verticalAlign=middle;whiteSpace=wrap;rounded=0;fontStyle=1;fontColor=#FF0080;" vertex="1" parent="1">
          <mxGeometry x="520.75" y="161" width="115" height="30" as="geometry" />
        </mxCell>
        <mxCell id="4y_6O7tbpXYUQsu5mCmw-303" value="Location" style="text;html=1;strokeColor=none;fillColor=none;align=left;verticalAlign=middle;whiteSpace=wrap;rounded=0;fontStyle=1;fontColor=#009900;" vertex="1" parent="1">
          <mxGeometry x="521" y="221" width="115" height="30" as="geometry" />
        </mxCell>
        <mxCell id="4y_6O7tbpXYUQsu5mCmw-304" value="Self table &lt;b&gt;&lt;font color=&quot;#ff0000&quot;&gt;&amp;lt;Office&amp;gt;&lt;/font&gt;&lt;/b&gt;" style="text;html=1;strokeColor=none;fillColor=none;align=left;verticalAlign=top;whiteSpace=wrap;rounded=0;fontColor=#000066;" vertex="1" parent="1">
          <mxGeometry x="555.25" y="241" width="222" height="30" as="geometry" />
        </mxCell>
        <mxCell id="4y_6O7tbpXYUQsu5mCmw-305" value="Member" style="text;html=1;strokeColor=none;fillColor=none;align=left;verticalAlign=middle;whiteSpace=wrap;rounded=0;fontStyle=1;fontColor=#FF00FF;" vertex="1" parent="1">
          <mxGeometry x="520" y="101" width="115" height="30" as="geometry" />
        </mxCell>
        <mxCell id="4y_6O7tbpXYUQsu5mCmw-306" value="Time" style="text;html=1;strokeColor=none;fillColor=none;align=left;verticalAlign=middle;whiteSpace=wrap;rounded=0;fontStyle=1;fontColor=#0000CC;" vertex="1" parent="1">
          <mxGeometry x="520" y="41" width="115" height="30" as="geometry" />
        </mxCell>
        <mxCell id="4y_6O7tbpXYUQsu5mCmw-307" value="" style="shape=image;verticalLabelPosition=bottom;verticalAlign=top;imageAspect=0;aspect=fixed;image=data:image/svg+xml,PHN2ZyB4bWxucz0iaHR0cDovL3d3dy53My5vcmcvMjAwMC9zdmciIHZlcnNpb249IjEiIHZpZXdCb3g9IjAgMCA0OCA0OCIgZW5hYmxlLWJhY2tncm91bmQ9Im5ldyAwIDAgNDggNDgiPiYjeGE7ICAgIDxnIGZpbGw9IiMzRjUxQjUiPiYjeGE7ICAgICAgICA8cG9seWdvbiBwb2ludHM9IjI0LDQgMzUuNywxOCAxMi4zLDE4Ii8+JiN4YTsgICAgICAgIDxyZWN0IHg9IjIwIiB5PSIxNSIgd2lkdGg9IjgiIGhlaWdodD0iMjciLz4mI3hhOyAgICA8L2c+JiN4YTs8L3N2Zz4=;" vertex="1" parent="1">
          <mxGeometry x="521" y="191" width="19" height="19" as="geometry" />
        </mxCell>
        <mxCell id="4y_6O7tbpXYUQsu5mCmw-308" value="" style="shape=image;verticalLabelPosition=bottom;verticalAlign=top;imageAspect=0;aspect=fixed;image=data:image/svg+xml,PHN2ZyB4bWxucz0iaHR0cDovL3d3dy53My5vcmcvMjAwMC9zdmciIHZlcnNpb249IjEiIHZpZXdCb3g9IjAgMCA0OCA0OCIgZW5hYmxlLWJhY2tncm91bmQ9Im5ldyAwIDAgNDggNDgiPiYjeGE7ICAgIDxwb2x5Z29uIGZpbGw9IiNGRjk4MDAiIHBvaW50cz0iMjQsMzcgMTksMzEgMTksMjUgMjksMjUgMjksMzEiLz4mI3hhOyAgICA8ZyBmaWxsPSIjRkZBNzI2Ij4mI3hhOyAgICAgICAgPGNpcmNsZSBjeD0iMzMiIGN5PSIxOSIgcj0iMiIvPiYjeGE7ICAgICAgICA8Y2lyY2xlIGN4PSIxNSIgY3k9IjE5IiByPSIyIi8+JiN4YTsgICAgPC9nPiYjeGE7ICAgIDxwYXRoIGZpbGw9IiNGRkI3NEQiIGQ9Ik0zMywxM2MwLTcuNi0xOC01LTE4LDBjMCwxLjEsMCw1LjksMCw3YzAsNSw0LDksOSw5czktNCw5LTlDMzMsMTguOSwzMywxNC4xLDMzLDEzeiIvPiYjeGE7ICAgIDxwYXRoIGZpbGw9IiM0MjQyNDIiIGQ9Ik0yNCw0Yy02LjEsMC0xMCw0LjktMTAsMTFjMCwwLjgsMCwyLjMsMCwyLjNsMiwxLjd2LTVsMTItNGw0LDR2NWwyLTEuN2MwLDAsMC0xLjUsMC0yLjNjMC00LTEtOC02LTlsLTEtMiBIMjR6Ii8+JiN4YTsgICAgPGcgZmlsbD0iIzc4NDcxOSI+JiN4YTsgICAgICAgIDxjaXJjbGUgY3g9IjI4IiBjeT0iMTkiIHI9IjEiLz4mI3hhOyAgICAgICAgPGNpcmNsZSBjeD0iMjAiIGN5PSIxOSIgcj0iMSIvPiYjeGE7ICAgIDwvZz4mI3hhOyAgICA8cG9seWdvbiBmaWxsPSIjZmZmIiBwb2ludHM9IjI0LDQzIDE5LDMxIDI0LDMyIDI5LDMxIi8+JiN4YTsgICAgPHBvbHlnb24gZmlsbD0iI0QzMkYyRiIgcG9pbnRzPSIyMywzNSAyMi4zLDM5LjUgMjQsNDMuNSAyNS43LDM5LjUgMjUsMzUgMjYsMzQgMjQsMzIgMjIsMzQiLz4mI3hhOyAgICA8cGF0aCBmaWxsPSIjNTQ2RTdBIiBkPSJNMjksMzFMMjksMzFsLTUsMTJsLTUtMTJjMCwwLTExLDItMTEsMTNoMzJDNDAsMzMsMjksMzEsMjksMzF6Ii8+JiN4YTs8L3N2Zz4=;" vertex="1" parent="1">
          <mxGeometry x="720.75" y="134.75" width="20.5" height="20.5" as="geometry" />
        </mxCell>
        <mxCell id="4y_6O7tbpXYUQsu5mCmw-309" value="" style="shape=image;verticalLabelPosition=bottom;verticalAlign=top;imageAspect=0;aspect=fixed;image=data:image/svg+xml,PHN2ZyB4bWxucz0iaHR0cDovL3d3dy53My5vcmcvMjAwMC9zdmciIHZlcnNpb249IjEiIHZpZXdCb3g9IjAgMCA0OCA0OCIgZW5hYmxlLWJhY2tncm91bmQ9Im5ldyAwIDAgNDggNDgiPiYjeGE7ICAgIDxnIGZpbGw9IiMzNzQ3NEYiPiYjeGE7ICAgICAgICA8cGF0aCBkPSJNMzguNSw0NC42bC00LTRsMi4xLTIuMWw0LDRjMC42LDAuNiwwLjYsMS41LDAsMi4xbDAsMEM0MC4xLDQ1LjEsMzkuMSw0NS4xLDM4LjUsNDQuNnoiLz4mI3hhOyAgICAgICAgPHBhdGggZD0iTTkuNSw0NC42bDQtNGwtMi4xLTIuMWwtNCw0Yy0wLjYsMC42LTAuNiwxLjUsMCwyLjFsMCwwQzcuOSw0NS4xLDguOSw0NS4xLDkuNSw0NC42eiIvPiYjeGE7ICAgIDwvZz4mI3hhOyAgICA8Y2lyY2xlIGZpbGw9IiNDNjI4MjgiIGN4PSIyNCIgY3k9IjI0IiByPSIyMCIvPiYjeGE7ICAgIDxjaXJjbGUgZmlsbD0iI2VlZSIgY3g9IjI0IiBjeT0iMjQiIHI9IjE2Ii8+JiN4YTsgICAgPHJlY3QgeD0iMTkiIHk9IjIyLjEiIHRyYW5zZm9ybT0ibWF0cml4KC0uNzA3IC0uNzA3IC43MDcgLS43MDcgMTIuOTA0IDYyLjUzNykiIGZpbGw9IiNFNTM5MzUiIHdpZHRoPSIuOCIgaGVpZ2h0PSIxMyIvPiYjeGE7ICAgIDxyZWN0IHg9IjIzIiB5PSIxMSIgd2lkdGg9IjIiIGhlaWdodD0iMTMiLz4mI3hhOyAgICA8cmVjdCB4PSIyNi4xIiB5PSIyMi43IiB0cmFuc2Zvcm09Im1hdHJpeCgtLjcwNyAuNzA3IC0uNzA3IC0uNzA3IDY1Ljc4NyAyNy4yNSkiIHdpZHRoPSIyLjMiIGhlaWdodD0iOS4yIi8+JiN4YTsgICAgPGNpcmNsZSBjeD0iMjQiIGN5PSIyNCIgcj0iMiIvPiYjeGE7ICAgIDxjaXJjbGUgZmlsbD0iI0M2MjgyOCIgY3g9IjI0IiBjeT0iMjQiIHI9IjEiLz4mI3hhOyAgICA8cmVjdCB4PSIyMiIgeT0iMSIgZmlsbD0iIzM3NDc0RiIgd2lkdGg9IjQiIGhlaWdodD0iMyIvPiYjeGE7ICAgIDxnIGZpbGw9IiMzNzQ3NEYiPiYjeGE7ICAgICAgICA8cGF0aCBkPSJNNDQuNCwxNi4yYzIuNS0zLjUsMi4xLTguNC0xLTExLjVjLTMuMS0zLjEtOC0zLjUtMTEuNS0xTDQ0LjQsMTYuMnoiLz4mI3hhOyAgICAgICAgPHBhdGggZD0iTTMuNiwxNi4yYy0yLjUtMy41LTIuMS04LjQsMS0xMS41YzMuMS0zLjEsOC0zLjUsMTEuNS0xTDMuNiwxNi4yeiIvPiYjeGE7ICAgIDwvZz4mI3hhOzwvc3ZnPg==;" vertex="1" parent="1">
          <mxGeometry x="722.25" y="76" width="18" height="18" as="geometry" />
        </mxCell>
        <mxCell id="4y_6O7tbpXYUQsu5mCmw-310" value="7:30 AM - 7:40AM" style="text;html=1;strokeColor=none;fillColor=none;align=left;verticalAlign=middle;whiteSpace=wrap;rounded=0;" vertex="1" parent="1">
          <mxGeometry x="755" y="70" width="115" height="30" as="geometry" />
        </mxCell>
        <mxCell id="4y_6O7tbpXYUQsu5mCmw-311" value="Mr. Seng Heang" style="text;html=1;strokeColor=none;fillColor=none;align=left;verticalAlign=middle;whiteSpace=wrap;rounded=0;fontStyle=1;labelBorderColor=none;fontColor=#000066;" vertex="1" parent="1">
          <mxGeometry x="755" y="130" width="115" height="30" as="geometry" />
        </mxCell>
        <mxCell id="4y_6O7tbpXYUQsu5mCmw-312" value="Say good morning to team with good smile&lt;br&gt;&lt;br&gt;Attendance Check&lt;br&gt;&lt;br&gt;Personal Protective Equipment (PPE) Check&lt;br&gt;&lt;br&gt;Sharing information about SQCD&amp;nbsp;&lt;br&gt;&lt;br&gt;Sharing information about job related member" style="text;html=1;strokeColor=none;fillColor=none;align=left;verticalAlign=top;whiteSpace=wrap;rounded=0;fontColor=#000066;" vertex="1" parent="1">
          <mxGeometry x="755" y="435" width="222" height="145" as="geometry" />
        </mxCell>
        <mxCell id="4y_6O7tbpXYUQsu5mCmw-313" value="Preparation" style="text;html=1;strokeColor=none;fillColor=none;align=left;verticalAlign=middle;whiteSpace=wrap;rounded=0;fontStyle=1;fontColor=#FF0080;" vertex="1" parent="1">
          <mxGeometry x="720.75" y="410" width="115" height="30" as="geometry" />
        </mxCell>
        <mxCell id="4y_6O7tbpXYUQsu5mCmw-314" value="Location" style="text;html=1;strokeColor=none;fillColor=none;align=left;verticalAlign=middle;whiteSpace=wrap;rounded=0;fontStyle=1;fontColor=#009900;" vertex="1" parent="1">
          <mxGeometry x="721" y="630" width="115" height="30" as="geometry" />
        </mxCell>
        <mxCell id="4y_6O7tbpXYUQsu5mCmw-315" value="Production Area&amp;nbsp;&lt;font style=&quot;&quot; color=&quot;#ff0000&quot;&gt;&lt;b&gt;&amp;lt;DX Obeya Area&amp;gt;&lt;/b&gt;&lt;/font&gt;" style="text;html=1;strokeColor=none;fillColor=none;align=left;verticalAlign=top;whiteSpace=wrap;rounded=0;fontColor=#000066;" vertex="1" parent="1">
          <mxGeometry x="755.25" y="650" width="222" height="30" as="geometry" />
        </mxCell>
        <mxCell id="4y_6O7tbpXYUQsu5mCmw-316" value="Member" style="text;html=1;strokeColor=none;fillColor=none;align=left;verticalAlign=middle;whiteSpace=wrap;rounded=0;fontStyle=1;fontColor=#FF00FF;" vertex="1" parent="1">
          <mxGeometry x="720" y="100" width="115" height="30" as="geometry" />
        </mxCell>
        <mxCell id="4y_6O7tbpXYUQsu5mCmw-317" value="Time" style="text;html=1;strokeColor=none;fillColor=none;align=left;verticalAlign=middle;whiteSpace=wrap;rounded=0;fontStyle=1;fontColor=#0000CC;" vertex="1" parent="1">
          <mxGeometry x="720" y="40" width="115" height="30" as="geometry" />
        </mxCell>
        <mxCell id="4y_6O7tbpXYUQsu5mCmw-322" value="Optional" style="text;html=1;strokeColor=none;fillColor=none;align=left;verticalAlign=middle;whiteSpace=wrap;rounded=0;fontStyle=1;fontColor=#FF99FF;" vertex="1" parent="1">
          <mxGeometry x="880" y="131" width="70" height="30" as="geometry" />
        </mxCell>
        <mxCell id="4y_6O7tbpXYUQsu5mCmw-323" value="" style="shape=image;verticalLabelPosition=bottom;verticalAlign=top;imageAspect=0;aspect=fixed;image=data:image/svg+xml,PHN2ZyB4bWxucz0iaHR0cDovL3d3dy53My5vcmcvMjAwMC9zdmciIHZlcnNpb249IjEiIHZpZXdCb3g9IjAgMCA0OCA0OCIgZW5hYmxlLWJhY2tncm91bmQ9Im5ldyAwIDAgNDggNDgiPiYjeGE7ICAgIDxwb2x5Z29uIGZpbGw9IiNGRjk4MDAiIHBvaW50cz0iMjQsMzcgMTksMzEgMTksMjUgMjksMjUgMjksMzEiLz4mI3hhOyAgICA8ZyBmaWxsPSIjRkZBNzI2Ij4mI3hhOyAgICAgICAgPGNpcmNsZSBjeD0iMzMiIGN5PSIxOSIgcj0iMiIvPiYjeGE7ICAgICAgICA8Y2lyY2xlIGN4PSIxNSIgY3k9IjE5IiByPSIyIi8+JiN4YTsgICAgPC9nPiYjeGE7ICAgIDxwYXRoIGZpbGw9IiNGRkI3NEQiIGQ9Ik0zMywxM2MwLTcuNi0xOC01LTE4LDBjMCwxLjEsMCw1LjksMCw3YzAsNSw0LDksOSw5czktNCw5LTlDMzMsMTguOSwzMywxNC4xLDMzLDEzeiIvPiYjeGE7ICAgIDxwYXRoIGZpbGw9IiM0MjQyNDIiIGQ9Ik0yNCw0Yy02LjEsMC0xMCw0LjktMTAsMTFjMCwwLjgsMCwyLjMsMCwyLjNsMiwxLjd2LTVsMTItNGw0LDR2NWwyLTEuN2MwLDAsMC0xLjUsMC0yLjNjMC00LTEtOC02LTlsLTEtMiBIMjR6Ii8+JiN4YTsgICAgPGcgZmlsbD0iIzc4NDcxOSI+JiN4YTsgICAgICAgIDxjaXJjbGUgY3g9IjI4IiBjeT0iMTkiIHI9IjEiLz4mI3hhOyAgICAgICAgPGNpcmNsZSBjeD0iMjAiIGN5PSIxOSIgcj0iMSIvPiYjeGE7ICAgIDwvZz4mI3hhOyAgICA8cG9seWdvbiBmaWxsPSIjZmZmIiBwb2ludHM9IjI0LDQzIDE5LDMxIDI0LDMyIDI5LDMxIi8+JiN4YTsgICAgPHBvbHlnb24gZmlsbD0iI0QzMkYyRiIgcG9pbnRzPSIyMywzNSAyMi4zLDM5LjUgMjQsNDMuNSAyNS43LDM5LjUgMjUsMzUgMjYsMzQgMjQsMzIgMjIsMzQiLz4mI3hhOyAgICA8cGF0aCBmaWxsPSIjNTQ2RTdBIiBkPSJNMjksMzFMMjksMzFsLTUsMTJsLTUtMTJjMCwwLTExLDItMTEsMTNoMzJDNDAsMzMsMjksMzEsMjksMzF6Ii8+JiN4YTs8L3N2Zz4=;" vertex="1" parent="1">
          <mxGeometry x="722.25" y="164.75" width="20.5" height="20.5" as="geometry" />
        </mxCell>
        <mxCell id="4y_6O7tbpXYUQsu5mCmw-324" value="Mr. Cheng Laysrun" style="text;html=1;strokeColor=none;fillColor=none;align=left;verticalAlign=middle;whiteSpace=wrap;rounded=0;fontStyle=1;labelBorderColor=none;fontColor=#000066;" vertex="1" parent="1">
          <mxGeometry x="756.5" y="160" width="115" height="30" as="geometry" />
        </mxCell>
        <mxCell id="4y_6O7tbpXYUQsu5mCmw-325" value="Require" style="text;html=1;strokeColor=none;fillColor=none;align=left;verticalAlign=middle;whiteSpace=wrap;rounded=0;fontStyle=1;fontColor=#CC99FF;" vertex="1" parent="1">
          <mxGeometry x="880" y="160" width="70" height="30" as="geometry" />
        </mxCell>
        <mxCell id="4y_6O7tbpXYUQsu5mCmw-326" value="" style="shape=image;verticalLabelPosition=bottom;verticalAlign=top;imageAspect=0;aspect=fixed;image=data:image/svg+xml,PHN2ZyB4bWxucz0iaHR0cDovL3d3dy53My5vcmcvMjAwMC9zdmciIHZlcnNpb249IjEiIHZpZXdCb3g9IjAgMCA0OCA0OCIgZW5hYmxlLWJhY2tncm91bmQ9Im5ldyAwIDAgNDggNDgiPiYjeGE7ICAgIDxwb2x5Z29uIGZpbGw9IiNGRjk4MDAiIHBvaW50cz0iMjQsMzcgMTksMzEgMTksMjUgMjksMjUgMjksMzEiLz4mI3hhOyAgICA8ZyBmaWxsPSIjRkZBNzI2Ij4mI3hhOyAgICAgICAgPGNpcmNsZSBjeD0iMzMiIGN5PSIxOSIgcj0iMiIvPiYjeGE7ICAgICAgICA8Y2lyY2xlIGN4PSIxNSIgY3k9IjE5IiByPSIyIi8+JiN4YTsgICAgPC9nPiYjeGE7ICAgIDxwYXRoIGZpbGw9IiNGRkI3NEQiIGQ9Ik0zMywxM2MwLTcuNi0xOC01LTE4LDBjMCwxLjEsMCw1LjksMCw3YzAsNSw0LDksOSw5czktNCw5LTlDMzMsMTguOSwzMywxNC4xLDMzLDEzeiIvPiYjeGE7ICAgIDxwYXRoIGZpbGw9IiM0MjQyNDIiIGQ9Ik0yNCw0Yy02LjEsMC0xMCw0LjktMTAsMTFjMCwwLjgsMCwyLjMsMCwyLjNsMiwxLjd2LTVsMTItNGw0LDR2NWwyLTEuN2MwLDAsMC0xLjUsMC0yLjNjMC00LTEtOC02LTlsLTEtMiBIMjR6Ii8+JiN4YTsgICAgPGcgZmlsbD0iIzc4NDcxOSI+JiN4YTsgICAgICAgIDxjaXJjbGUgY3g9IjI4IiBjeT0iMTkiIHI9IjEiLz4mI3hhOyAgICAgICAgPGNpcmNsZSBjeD0iMjAiIGN5PSIxOSIgcj0iMSIvPiYjeGE7ICAgIDwvZz4mI3hhOyAgICA8cG9seWdvbiBmaWxsPSIjZmZmIiBwb2ludHM9IjI0LDQzIDE5LDMxIDI0LDMyIDI5LDMxIi8+JiN4YTsgICAgPHBvbHlnb24gZmlsbD0iI0QzMkYyRiIgcG9pbnRzPSIyMywzNSAyMi4zLDM5LjUgMjQsNDMuNSAyNS43LDM5LjUgMjUsMzUgMjYsMzQgMjQsMzIgMjIsMzQiLz4mI3hhOyAgICA8cGF0aCBmaWxsPSIjNTQ2RTdBIiBkPSJNMjksMzFMMjksMzFsLTUsMTJsLTUtMTJjMCwwLTExLDItMTEsMTNoMzJDNDAsMzMsMjksMzEsMjksMzF6Ii8+JiN4YTs8L3N2Zz4=;" vertex="1" parent="1">
          <mxGeometry x="722.25" y="193.75" width="20.5" height="20.5" as="geometry" />
        </mxCell>
        <mxCell id="4y_6O7tbpXYUQsu5mCmw-327" value="Mr. Lan Rathana" style="text;html=1;strokeColor=none;fillColor=none;align=left;verticalAlign=middle;whiteSpace=wrap;rounded=0;fontStyle=1;labelBorderColor=none;fontColor=#000066;" vertex="1" parent="1">
          <mxGeometry x="756.5" y="189" width="115" height="30" as="geometry" />
        </mxCell>
        <mxCell id="4y_6O7tbpXYUQsu5mCmw-328" value="Require" style="text;html=1;strokeColor=none;fillColor=none;align=left;verticalAlign=middle;whiteSpace=wrap;rounded=0;fontStyle=1;fontColor=#CC99FF;" vertex="1" parent="1">
          <mxGeometry x="880" y="189" width="70" height="30" as="geometry" />
        </mxCell>
        <mxCell id="4y_6O7tbpXYUQsu5mCmw-329" value="" style="shape=image;verticalLabelPosition=bottom;verticalAlign=top;imageAspect=0;aspect=fixed;image=data:image/svg+xml,PHN2ZyB4bWxucz0iaHR0cDovL3d3dy53My5vcmcvMjAwMC9zdmciIHZlcnNpb249IjEiIHZpZXdCb3g9IjAgMCA0OCA0OCIgZW5hYmxlLWJhY2tncm91bmQ9Im5ldyAwIDAgNDggNDgiPiYjeGE7ICAgIDxwb2x5Z29uIGZpbGw9IiNGRjk4MDAiIHBvaW50cz0iMjQsMzcgMTksMzEgMTksMjUgMjksMjUgMjksMzEiLz4mI3hhOyAgICA8ZyBmaWxsPSIjRkZBNzI2Ij4mI3hhOyAgICAgICAgPGNpcmNsZSBjeD0iMzMiIGN5PSIxOSIgcj0iMiIvPiYjeGE7ICAgICAgICA8Y2lyY2xlIGN4PSIxNSIgY3k9IjE5IiByPSIyIi8+JiN4YTsgICAgPC9nPiYjeGE7ICAgIDxwYXRoIGZpbGw9IiNGRkI3NEQiIGQ9Ik0zMywxM2MwLTcuNi0xOC01LTE4LDBjMCwxLjEsMCw1LjksMCw3YzAsNSw0LDksOSw5czktNCw5LTlDMzMsMTguOSwzMywxNC4xLDMzLDEzeiIvPiYjeGE7ICAgIDxwYXRoIGZpbGw9IiM0MjQyNDIiIGQ9Ik0yNCw0Yy02LjEsMC0xMCw0LjktMTAsMTFjMCwwLjgsMCwyLjMsMCwyLjNsMiwxLjd2LTVsMTItNGw0LDR2NWwyLTEuN2MwLDAsMC0xLjUsMC0yLjNjMC00LTEtOC02LTlsLTEtMiBIMjR6Ii8+JiN4YTsgICAgPGcgZmlsbD0iIzc4NDcxOSI+JiN4YTsgICAgICAgIDxjaXJjbGUgY3g9IjI4IiBjeT0iMTkiIHI9IjEiLz4mI3hhOyAgICAgICAgPGNpcmNsZSBjeD0iMjAiIGN5PSIxOSIgcj0iMSIvPiYjeGE7ICAgIDwvZz4mI3hhOyAgICA8cG9seWdvbiBmaWxsPSIjZmZmIiBwb2ludHM9IjI0LDQzIDE5LDMxIDI0LDMyIDI5LDMxIi8+JiN4YTsgICAgPHBvbHlnb24gZmlsbD0iI0QzMkYyRiIgcG9pbnRzPSIyMywzNSAyMi4zLDM5LjUgMjQsNDMuNSAyNS43LDM5LjUgMjUsMzUgMjYsMzQgMjQsMzIgMjIsMzQiLz4mI3hhOyAgICA8cGF0aCBmaWxsPSIjNTQ2RTdBIiBkPSJNMjksMzFMMjksMzFsLTUsMTJsLTUtMTJjMCwwLTExLDItMTEsMTNoMzJDNDAsMzMsMjksMzEsMjksMzF6Ii8+JiN4YTs8L3N2Zz4=;" vertex="1" parent="1">
          <mxGeometry x="720" y="221.75" width="20.5" height="20.5" as="geometry" />
        </mxCell>
        <mxCell id="4y_6O7tbpXYUQsu5mCmw-330" value="Mr.&amp;nbsp;Hormeng Hong" style="text;html=1;strokeColor=none;fillColor=none;align=left;verticalAlign=middle;whiteSpace=wrap;rounded=0;fontStyle=1;labelBorderColor=none;fontColor=#000066;" vertex="1" parent="1">
          <mxGeometry x="756.5" y="218" width="133.5" height="30" as="geometry" />
        </mxCell>
        <mxCell id="4y_6O7tbpXYUQsu5mCmw-331" value="Require" style="text;html=1;strokeColor=none;fillColor=none;align=left;verticalAlign=middle;whiteSpace=wrap;rounded=0;fontStyle=1;fontColor=#CC99FF;" vertex="1" parent="1">
          <mxGeometry x="879.25" y="218" width="70" height="30" as="geometry" />
        </mxCell>
        <mxCell id="4y_6O7tbpXYUQsu5mCmw-332" value="" style="shape=image;verticalLabelPosition=bottom;verticalAlign=top;imageAspect=0;aspect=fixed;image=data:image/svg+xml,PHN2ZyB4bWxucz0iaHR0cDovL3d3dy53My5vcmcvMjAwMC9zdmciIHZlcnNpb249IjEiIHZpZXdCb3g9IjAgMCA0OCA0OCIgZW5hYmxlLWJhY2tncm91bmQ9Im5ldyAwIDAgNDggNDgiPiYjeGE7ICAgIDxwb2x5Z29uIGZpbGw9IiNGRjk4MDAiIHBvaW50cz0iMjQsMzcgMTksMzEgMTksMjUgMjksMjUgMjksMzEiLz4mI3hhOyAgICA8ZyBmaWxsPSIjRkZBNzI2Ij4mI3hhOyAgICAgICAgPGNpcmNsZSBjeD0iMzMiIGN5PSIxOSIgcj0iMiIvPiYjeGE7ICAgICAgICA8Y2lyY2xlIGN4PSIxNSIgY3k9IjE5IiByPSIyIi8+JiN4YTsgICAgPC9nPiYjeGE7ICAgIDxwYXRoIGZpbGw9IiNGRkI3NEQiIGQ9Ik0zMywxM2MwLTcuNi0xOC01LTE4LDBjMCwxLjEsMCw1LjksMCw3YzAsNSw0LDksOSw5czktNCw5LTlDMzMsMTguOSwzMywxNC4xLDMzLDEzeiIvPiYjeGE7ICAgIDxwYXRoIGZpbGw9IiM0MjQyNDIiIGQ9Ik0yNCw0Yy02LjEsMC0xMCw0LjktMTAsMTFjMCwwLjgsMCwyLjMsMCwyLjNsMiwxLjd2LTVsMTItNGw0LDR2NWwyLTEuN2MwLDAsMC0xLjUsMC0yLjNjMC00LTEtOC02LTlsLTEtMiBIMjR6Ii8+JiN4YTsgICAgPGcgZmlsbD0iIzc4NDcxOSI+JiN4YTsgICAgICAgIDxjaXJjbGUgY3g9IjI4IiBjeT0iMTkiIHI9IjEiLz4mI3hhOyAgICAgICAgPGNpcmNsZSBjeD0iMjAiIGN5PSIxOSIgcj0iMSIvPiYjeGE7ICAgIDwvZz4mI3hhOyAgICA8cG9seWdvbiBmaWxsPSIjZmZmIiBwb2ludHM9IjI0LDQzIDE5LDMxIDI0LDMyIDI5LDMxIi8+JiN4YTsgICAgPHBvbHlnb24gZmlsbD0iI0QzMkYyRiIgcG9pbnRzPSIyMywzNSAyMi4zLDM5LjUgMjQsNDMuNSAyNS43LDM5LjUgMjUsMzUgMjYsMzQgMjQsMzIgMjIsMzQiLz4mI3hhOyAgICA8cGF0aCBmaWxsPSIjNTQ2RTdBIiBkPSJNMjksMzFMMjksMzFsLTUsMTJsLTUtMTJjMCwwLTExLDItMTEsMTNoMzJDNDAsMzMsMjksMzEsMjksMzF6Ii8+JiN4YTs8L3N2Zz4=;" vertex="1" parent="1">
          <mxGeometry x="721.5" y="251.75" width="20.5" height="20.5" as="geometry" />
        </mxCell>
        <mxCell id="4y_6O7tbpXYUQsu5mCmw-333" value="Mr. Thearith Seng" style="text;html=1;strokeColor=none;fillColor=none;align=left;verticalAlign=middle;whiteSpace=wrap;rounded=0;fontStyle=1;labelBorderColor=none;fontColor=#000066;" vertex="1" parent="1">
          <mxGeometry x="755.75" y="247" width="115" height="30" as="geometry" />
        </mxCell>
        <mxCell id="4y_6O7tbpXYUQsu5mCmw-334" value="Require" style="text;html=1;strokeColor=none;fillColor=none;align=left;verticalAlign=middle;whiteSpace=wrap;rounded=0;fontStyle=1;fontColor=#CC99FF;" vertex="1" parent="1">
          <mxGeometry x="879.25" y="247" width="70" height="30" as="geometry" />
        </mxCell>
        <mxCell id="4y_6O7tbpXYUQsu5mCmw-335" value="" style="shape=image;verticalLabelPosition=bottom;verticalAlign=top;imageAspect=0;aspect=fixed;image=data:image/svg+xml,PHN2ZyB4bWxucz0iaHR0cDovL3d3dy53My5vcmcvMjAwMC9zdmciIHZlcnNpb249IjEiIHZpZXdCb3g9IjAgMCA0OCA0OCIgZW5hYmxlLWJhY2tncm91bmQ9Im5ldyAwIDAgNDggNDgiPiYjeGE7ICAgIDxwb2x5Z29uIGZpbGw9IiNGRjk4MDAiIHBvaW50cz0iMjQsMzcgMTksMzEgMTksMjUgMjksMjUgMjksMzEiLz4mI3hhOyAgICA8ZyBmaWxsPSIjRkZBNzI2Ij4mI3hhOyAgICAgICAgPGNpcmNsZSBjeD0iMzMiIGN5PSIxOSIgcj0iMiIvPiYjeGE7ICAgICAgICA8Y2lyY2xlIGN4PSIxNSIgY3k9IjE5IiByPSIyIi8+JiN4YTsgICAgPC9nPiYjeGE7ICAgIDxwYXRoIGZpbGw9IiNGRkI3NEQiIGQ9Ik0zMywxM2MwLTcuNi0xOC01LTE4LDBjMCwxLjEsMCw1LjksMCw3YzAsNSw0LDksOSw5czktNCw5LTlDMzMsMTguOSwzMywxNC4xLDMzLDEzeiIvPiYjeGE7ICAgIDxwYXRoIGZpbGw9IiM0MjQyNDIiIGQ9Ik0yNCw0Yy02LjEsMC0xMCw0LjktMTAsMTFjMCwwLjgsMCwyLjMsMCwyLjNsMiwxLjd2LTVsMTItNGw0LDR2NWwyLTEuN2MwLDAsMC0xLjUsMC0yLjNjMC00LTEtOC02LTlsLTEtMiBIMjR6Ii8+JiN4YTsgICAgPGcgZmlsbD0iIzc4NDcxOSI+JiN4YTsgICAgICAgIDxjaXJjbGUgY3g9IjI4IiBjeT0iMTkiIHI9IjEiLz4mI3hhOyAgICAgICAgPGNpcmNsZSBjeD0iMjAiIGN5PSIxOSIgcj0iMSIvPiYjeGE7ICAgIDwvZz4mI3hhOyAgICA8cG9seWdvbiBmaWxsPSIjZmZmIiBwb2ludHM9IjI0LDQzIDE5LDMxIDI0LDMyIDI5LDMxIi8+JiN4YTsgICAgPHBvbHlnb24gZmlsbD0iI0QzMkYyRiIgcG9pbnRzPSIyMywzNSAyMi4zLDM5LjUgMjQsNDMuNSAyNS43LDM5LjUgMjUsMzUgMjYsMzQgMjQsMzIgMjIsMzQiLz4mI3hhOyAgICA8cGF0aCBmaWxsPSIjNTQ2RTdBIiBkPSJNMjksMzFMMjksMzFsLTUsMTJsLTUtMTJjMCwwLTExLDItMTEsMTNoMzJDNDAsMzMsMjksMzEsMjksMzF6Ii8+JiN4YTs8L3N2Zz4=;" vertex="1" parent="1">
          <mxGeometry x="721.5" y="279.75" width="20.5" height="20.5" as="geometry" />
        </mxCell>
        <mxCell id="4y_6O7tbpXYUQsu5mCmw-336" value="Mr. Vattanak" style="text;html=1;strokeColor=none;fillColor=none;align=left;verticalAlign=middle;whiteSpace=wrap;rounded=0;fontStyle=1;labelBorderColor=none;fontColor=#000066;" vertex="1" parent="1">
          <mxGeometry x="755.75" y="275" width="115" height="30" as="geometry" />
        </mxCell>
        <mxCell id="4y_6O7tbpXYUQsu5mCmw-337" value="Require" style="text;html=1;strokeColor=none;fillColor=none;align=left;verticalAlign=middle;whiteSpace=wrap;rounded=0;fontStyle=1;fontColor=#CC99FF;" vertex="1" parent="1">
          <mxGeometry x="879.25" y="275" width="70" height="30" as="geometry" />
        </mxCell>
        <mxCell id="4y_6O7tbpXYUQsu5mCmw-338" value="" style="shape=image;verticalLabelPosition=bottom;verticalAlign=top;imageAspect=0;aspect=fixed;image=data:image/svg+xml,PHN2ZyB4bWxucz0iaHR0cDovL3d3dy53My5vcmcvMjAwMC9zdmciIHZlcnNpb249IjEiIHZpZXdCb3g9IjAgMCA0OCA0OCIgZW5hYmxlLWJhY2tncm91bmQ9Im5ldyAwIDAgNDggNDgiPiYjeGE7ICAgIDxwb2x5Z29uIGZpbGw9IiNGRjk4MDAiIHBvaW50cz0iMjQsMzcgMTksMzEgMTksMjUgMjksMjUgMjksMzEiLz4mI3hhOyAgICA8ZyBmaWxsPSIjRkZBNzI2Ij4mI3hhOyAgICAgICAgPGNpcmNsZSBjeD0iMzMiIGN5PSIxOSIgcj0iMiIvPiYjeGE7ICAgICAgICA8Y2lyY2xlIGN4PSIxNSIgY3k9IjE5IiByPSIyIi8+JiN4YTsgICAgPC9nPiYjeGE7ICAgIDxwYXRoIGZpbGw9IiNGRkI3NEQiIGQ9Ik0zMywxM2MwLTcuNi0xOC01LTE4LDBjMCwxLjEsMCw1LjksMCw3YzAsNSw0LDksOSw5czktNCw5LTlDMzMsMTguOSwzMywxNC4xLDMzLDEzeiIvPiYjeGE7ICAgIDxwYXRoIGZpbGw9IiM0MjQyNDIiIGQ9Ik0yNCw0Yy02LjEsMC0xMCw0LjktMTAsMTFjMCwwLjgsMCwyLjMsMCwyLjNsMiwxLjd2LTVsMTItNGw0LDR2NWwyLTEuN2MwLDAsMC0xLjUsMC0yLjNjMC00LTEtOC02LTlsLTEtMiBIMjR6Ii8+JiN4YTsgICAgPGcgZmlsbD0iIzc4NDcxOSI+JiN4YTsgICAgICAgIDxjaXJjbGUgY3g9IjI4IiBjeT0iMTkiIHI9IjEiLz4mI3hhOyAgICAgICAgPGNpcmNsZSBjeD0iMjAiIGN5PSIxOSIgcj0iMSIvPiYjeGE7ICAgIDwvZz4mI3hhOyAgICA8cG9seWdvbiBmaWxsPSIjZmZmIiBwb2ludHM9IjI0LDQzIDE5LDMxIDI0LDMyIDI5LDMxIi8+JiN4YTsgICAgPHBvbHlnb24gZmlsbD0iI0QzMkYyRiIgcG9pbnRzPSIyMywzNSAyMi4zLDM5LjUgMjQsNDMuNSAyNS43LDM5LjUgMjUsMzUgMjYsMzQgMjQsMzIgMjIsMzQiLz4mI3hhOyAgICA8cGF0aCBmaWxsPSIjNTQ2RTdBIiBkPSJNMjksMzFMMjksMzFsLTUsMTJsLTUtMTJjMCwwLTExLDItMTEsMTNoMzJDNDAsMzMsMjksMzEsMjksMzF6Ii8+JiN4YTs8L3N2Zz4=;" vertex="1" parent="1">
          <mxGeometry x="720" y="308.75" width="20.5" height="20.5" as="geometry" />
        </mxCell>
        <mxCell id="4y_6O7tbpXYUQsu5mCmw-339" value="Mr. KhimHeang" style="text;html=1;strokeColor=none;fillColor=none;align=left;verticalAlign=middle;whiteSpace=wrap;rounded=0;fontStyle=1;labelBorderColor=none;fontColor=#000066;" vertex="1" parent="1">
          <mxGeometry x="756.5" y="305" width="115" height="30" as="geometry" />
        </mxCell>
        <mxCell id="4y_6O7tbpXYUQsu5mCmw-340" value="Optional" style="text;html=1;strokeColor=none;fillColor=none;align=left;verticalAlign=middle;whiteSpace=wrap;rounded=0;fontStyle=1;fontColor=#CC99FF;" vertex="1" parent="1">
          <mxGeometry x="879.25" y="305" width="70" height="30" as="geometry" />
        </mxCell>
        <mxCell id="4y_6O7tbpXYUQsu5mCmw-341" value="" style="shape=image;verticalLabelPosition=bottom;verticalAlign=top;imageAspect=0;aspect=fixed;image=data:image/svg+xml,PHN2ZyB4bWxucz0iaHR0cDovL3d3dy53My5vcmcvMjAwMC9zdmciIHZlcnNpb249IjEiIHZpZXdCb3g9IjAgMCA0OCA0OCIgZW5hYmxlLWJhY2tncm91bmQ9Im5ldyAwIDAgNDggNDgiPiYjeGE7ICAgIDxwb2x5Z29uIGZpbGw9IiNGRjk4MDAiIHBvaW50cz0iMjQsMzcgMTksMzEgMTksMjUgMjksMjUgMjksMzEiLz4mI3hhOyAgICA8ZyBmaWxsPSIjRkZBNzI2Ij4mI3hhOyAgICAgICAgPGNpcmNsZSBjeD0iMzMiIGN5PSIxOSIgcj0iMiIvPiYjeGE7ICAgICAgICA8Y2lyY2xlIGN4PSIxNSIgY3k9IjE5IiByPSIyIi8+JiN4YTsgICAgPC9nPiYjeGE7ICAgIDxwYXRoIGZpbGw9IiNGRkI3NEQiIGQ9Ik0zMywxM2MwLTcuNi0xOC01LTE4LDBjMCwxLjEsMCw1LjksMCw3YzAsNSw0LDksOSw5czktNCw5LTlDMzMsMTguOSwzMywxNC4xLDMzLDEzeiIvPiYjeGE7ICAgIDxwYXRoIGZpbGw9IiM0MjQyNDIiIGQ9Ik0yNCw0Yy02LjEsMC0xMCw0LjktMTAsMTFjMCwwLjgsMCwyLjMsMCwyLjNsMiwxLjd2LTVsMTItNGw0LDR2NWwyLTEuN2MwLDAsMC0xLjUsMC0yLjNjMC00LTEtOC02LTlsLTEtMiBIMjR6Ii8+JiN4YTsgICAgPGcgZmlsbD0iIzc4NDcxOSI+JiN4YTsgICAgICAgIDxjaXJjbGUgY3g9IjI4IiBjeT0iMTkiIHI9IjEiLz4mI3hhOyAgICAgICAgPGNpcmNsZSBjeD0iMjAiIGN5PSIxOSIgcj0iMSIvPiYjeGE7ICAgIDwvZz4mI3hhOyAgICA8cG9seWdvbiBmaWxsPSIjZmZmIiBwb2ludHM9IjI0LDQzIDE5LDMxIDI0LDMyIDI5LDMxIi8+JiN4YTsgICAgPHBvbHlnb24gZmlsbD0iI0QzMkYyRiIgcG9pbnRzPSIyMywzNSAyMi4zLDM5LjUgMjQsNDMuNSAyNS43LDM5LjUgMjUsMzUgMjYsMzQgMjQsMzIgMjIsMzQiLz4mI3hhOyAgICA8cGF0aCBmaWxsPSIjNTQ2RTdBIiBkPSJNMjksMzFMMjksMzFsLTUsMTJsLTUtMTJjMCwwLTExLDItMTEsMTNoMzJDNDAsMzMsMjksMzEsMjksMzF6Ii8+JiN4YTs8L3N2Zz4=;" vertex="1" parent="1">
          <mxGeometry x="721.5" y="338.75" width="20.5" height="20.5" as="geometry" />
        </mxCell>
        <mxCell id="4y_6O7tbpXYUQsu5mCmw-342" value="Mr. SinRithy" style="text;html=1;strokeColor=none;fillColor=none;align=left;verticalAlign=middle;whiteSpace=wrap;rounded=0;fontStyle=1;labelBorderColor=none;fontColor=#000066;" vertex="1" parent="1">
          <mxGeometry x="755.75" y="334" width="115" height="30" as="geometry" />
        </mxCell>
        <mxCell id="4y_6O7tbpXYUQsu5mCmw-343" value="Require" style="text;html=1;strokeColor=none;fillColor=none;align=left;verticalAlign=middle;whiteSpace=wrap;rounded=0;fontStyle=1;fontColor=#CC99FF;" vertex="1" parent="1">
          <mxGeometry x="879.25" y="334" width="70" height="30" as="geometry" />
        </mxCell>
        <mxCell id="4y_6O7tbpXYUQsu5mCmw-344" value="" style="shape=image;verticalLabelPosition=bottom;verticalAlign=top;imageAspect=0;aspect=fixed;image=data:image/svg+xml,PHN2ZyB4bWxucz0iaHR0cDovL3d3dy53My5vcmcvMjAwMC9zdmciIHZlcnNpb249IjEiIHZpZXdCb3g9IjAgMCA0OCA0OCIgZW5hYmxlLWJhY2tncm91bmQ9Im5ldyAwIDAgNDggNDgiPiYjeGE7ICAgIDxwb2x5Z29uIGZpbGw9IiNGRjk4MDAiIHBvaW50cz0iMjQsMzcgMTksMzEgMTksMjUgMjksMjUgMjksMzEiLz4mI3hhOyAgICA8ZyBmaWxsPSIjRkZBNzI2Ij4mI3hhOyAgICAgICAgPGNpcmNsZSBjeD0iMzMiIGN5PSIxOSIgcj0iMiIvPiYjeGE7ICAgICAgICA8Y2lyY2xlIGN4PSIxNSIgY3k9IjE5IiByPSIyIi8+JiN4YTsgICAgPC9nPiYjeGE7ICAgIDxwYXRoIGZpbGw9IiNGRkI3NEQiIGQ9Ik0zMywxM2MwLTcuNi0xOC01LTE4LDBjMCwxLjEsMCw1LjksMCw3YzAsNSw0LDksOSw5czktNCw5LTlDMzMsMTguOSwzMywxNC4xLDMzLDEzeiIvPiYjeGE7ICAgIDxwYXRoIGZpbGw9IiM0MjQyNDIiIGQ9Ik0yNCw0Yy02LjEsMC0xMCw0LjktMTAsMTFjMCwwLjgsMCwyLjMsMCwyLjNsMiwxLjd2LTVsMTItNGw0LDR2NWwyLTEuN2MwLDAsMC0xLjUsMC0yLjNjMC00LTEtOC02LTlsLTEtMiBIMjR6Ii8+JiN4YTsgICAgPGcgZmlsbD0iIzc4NDcxOSI+JiN4YTsgICAgICAgIDxjaXJjbGUgY3g9IjI4IiBjeT0iMTkiIHI9IjEiLz4mI3hhOyAgICAgICAgPGNpcmNsZSBjeD0iMjAiIGN5PSIxOSIgcj0iMSIvPiYjeGE7ICAgIDwvZz4mI3hhOyAgICA8cG9seWdvbiBmaWxsPSIjZmZmIiBwb2ludHM9IjI0LDQzIDE5LDMxIDI0LDMyIDI5LDMxIi8+JiN4YTsgICAgPHBvbHlnb24gZmlsbD0iI0QzMkYyRiIgcG9pbnRzPSIyMywzNSAyMi4zLDM5LjUgMjQsNDMuNSAyNS43LDM5LjUgMjUsMzUgMjYsMzQgMjQsMzIgMjIsMzQiLz4mI3hhOyAgICA8cGF0aCBmaWxsPSIjNTQ2RTdBIiBkPSJNMjksMzFMMjksMzFsLTUsMTJsLTUtMTJjMCwwLTExLDItMTEsMTNoMzJDNDAsMzMsMjksMzEsMjksMzF6Ii8+JiN4YTs8L3N2Zz4=;" vertex="1" parent="1">
          <mxGeometry x="721.5" y="366.75" width="20.5" height="20.5" as="geometry" />
        </mxCell>
        <mxCell id="4y_6O7tbpXYUQsu5mCmw-345" value="New Members" style="text;html=1;strokeColor=none;fillColor=none;align=left;verticalAlign=middle;whiteSpace=wrap;rounded=0;fontStyle=1;labelBorderColor=none;fontColor=#000066;" vertex="1" parent="1">
          <mxGeometry x="755.75" y="362" width="115" height="30" as="geometry" />
        </mxCell>
        <mxCell id="4y_6O7tbpXYUQsu5mCmw-346" value="Require" style="text;html=1;strokeColor=none;fillColor=none;align=left;verticalAlign=middle;whiteSpace=wrap;rounded=0;fontStyle=1;fontColor=#CC99FF;" vertex="1" parent="1">
          <mxGeometry x="879.25" y="362" width="70" height="30" as="geometry" />
        </mxCell>
        <mxCell id="4y_6O7tbpXYUQsu5mCmw-349" value="" style="shape=image;verticalLabelPosition=bottom;verticalAlign=top;imageAspect=0;aspect=fixed;image=data:image/svg+xml,PHN2ZyB4bWxucz0iaHR0cDovL3d3dy53My5vcmcvMjAwMC9zdmciIHZlcnNpb249IjEiIHZpZXdCb3g9IjAgMCA0OCA0OCIgZW5hYmxlLWJhY2tncm91bmQ9Im5ldyAwIDAgNDggNDgiPiYjeGE7ICAgIDxwb2x5Z29uIGZpbGw9IiNGRjk4MDAiIHBvaW50cz0iMjQsMzcgMTksMzEgMTksMjUgMjksMjUgMjksMzEiLz4mI3hhOyAgICA8ZyBmaWxsPSIjRkZBNzI2Ij4mI3hhOyAgICAgICAgPGNpcmNsZSBjeD0iMzMiIGN5PSIxOSIgcj0iMiIvPiYjeGE7ICAgICAgICA8Y2lyY2xlIGN4PSIxNSIgY3k9IjE5IiByPSIyIi8+JiN4YTsgICAgPC9nPiYjeGE7ICAgIDxwYXRoIGZpbGw9IiNGRkI3NEQiIGQ9Ik0zMywxM2MwLTcuNi0xOC01LTE4LDBjMCwxLjEsMCw1LjksMCw3YzAsNSw0LDksOSw5czktNCw5LTlDMzMsMTguOSwzMywxNC4xLDMzLDEzeiIvPiYjeGE7ICAgIDxwYXRoIGZpbGw9IiNGRjU3MjIiIGQ9Ik0yNCw0Yy02LjEsMC0xMCw0LjktMTAsMTFjMCwwLjgsMCwyLjMsMCwyLjNsMiwxLjd2LTVsMTItNGw0LDR2NWwyLTEuN2MwLDAsMC0xLjUsMC0yLjNjMC00LTEtOC02LTlsLTEtMiBIMjR6Ii8+JiN4YTsgICAgPGcgZmlsbD0iIzc4NDcxOSI+JiN4YTsgICAgICAgIDxjaXJjbGUgY3g9IjI4IiBjeT0iMTkiIHI9IjEiLz4mI3hhOyAgICAgICAgPGNpcmNsZSBjeD0iMjAiIGN5PSIxOSIgcj0iMSIvPiYjeGE7ICAgIDwvZz4mI3hhOyAgICA8cGF0aCBmaWxsPSIjQ0ZEOERDIiBkPSJNMjksMzFMMjksMzFsLTUsMWwtNS0xYzAsMC0xMSwyLTExLDEzaDMyQzQwLDMzLDI5LDMxLDI5LDMxeiIvPiYjeGE7ICAgIDxwb2x5Z29uIGZpbGw9IiMzRjUxQjUiIHBvaW50cz0iMjMsMzUgMjIsNDQgMjYsNDQgMjUsMzUgMjYsMzQgMjQsMzIgMjIsMzQiLz4mI3hhOzwvc3ZnPg==;" vertex="1" parent="1">
          <mxGeometry x="722.75" y="440" width="20" height="20" as="geometry" />
        </mxCell>
        <mxCell id="4y_6O7tbpXYUQsu5mCmw-359" value="" style="shape=image;verticalLabelPosition=bottom;verticalAlign=top;imageAspect=0;aspect=fixed;image=data:image/svg+xml,PHN2ZyB4bWxucz0iaHR0cDovL3d3dy53My5vcmcvMjAwMC9zdmciIHZlcnNpb249IjEiIHZpZXdCb3g9IjAgMCA0OCA0OCIgZW5hYmxlLWJhY2tncm91bmQ9Im5ldyAwIDAgNDggNDgiPiYjeGE7ICAgIDxwb2x5Z29uIGZpbGw9IiNGRjk4MDAiIHBvaW50cz0iMjQsMzcgMTksMzEgMTksMjUgMjksMjUgMjksMzEiLz4mI3hhOyAgICA8ZyBmaWxsPSIjRkZBNzI2Ij4mI3hhOyAgICAgICAgPGNpcmNsZSBjeD0iMzMiIGN5PSIxOSIgcj0iMiIvPiYjeGE7ICAgICAgICA8Y2lyY2xlIGN4PSIxNSIgY3k9IjE5IiByPSIyIi8+JiN4YTsgICAgPC9nPiYjeGE7ICAgIDxwYXRoIGZpbGw9IiNGRkI3NEQiIGQ9Ik0zMywxM2MwLTcuNi0xOC01LTE4LDBjMCwxLjEsMCw1LjksMCw3YzAsNSw0LDksOSw5czktNCw5LTlDMzMsMTguOSwzMywxNC4xLDMzLDEzeiIvPiYjeGE7ICAgIDxwYXRoIGZpbGw9IiM0MjQyNDIiIGQ9Ik0yNCw0Yy02LjEsMC0xMCw0LjktMTAsMTFjMCwwLjgsMCwyLjMsMCwyLjNsMiwxLjd2LTVsMTItNGw0LDR2NWwyLTEuN2MwLDAsMC0xLjUsMC0yLjNjMC00LTEtOC02LTlsLTEtMiBIMjR6Ii8+JiN4YTsgICAgPGcgZmlsbD0iIzc4NDcxOSI+JiN4YTsgICAgICAgIDxjaXJjbGUgY3g9IjI4IiBjeT0iMTkiIHI9IjEiLz4mI3hhOyAgICAgICAgPGNpcmNsZSBjeD0iMjAiIGN5PSIxOSIgcj0iMSIvPiYjeGE7ICAgIDwvZz4mI3hhOyAgICA8cG9seWdvbiBmaWxsPSIjZmZmIiBwb2ludHM9IjI0LDQzIDE5LDMxIDI0LDMyIDI5LDMxIi8+JiN4YTsgICAgPHBvbHlnb24gZmlsbD0iI0QzMkYyRiIgcG9pbnRzPSIyMywzNSAyMi4zLDM5LjUgMjQsNDMuNSAyNS43LDM5LjUgMjUsMzUgMjYsMzQgMjQsMzIgMjIsMzQiLz4mI3hhOyAgICA8cGF0aCBmaWxsPSIjNTQ2RTdBIiBkPSJNMjksMzFMMjksMzFsLTUsMTJsLTUtMTJjMCwwLTExLDItMTEsMTNoMzJDNDAsMzMsMjksMzEsMjksMzF6Ii8+JiN4YTs8L3N2Zz4=;" vertex="1" parent="1">
          <mxGeometry x="1000.75" y="140.5" width="20.5" height="20.5" as="geometry" />
        </mxCell>
        <mxCell id="4y_6O7tbpXYUQsu5mCmw-360" value="" style="shape=image;verticalLabelPosition=bottom;verticalAlign=top;imageAspect=0;aspect=fixed;image=data:image/svg+xml,PHN2ZyB4bWxucz0iaHR0cDovL3d3dy53My5vcmcvMjAwMC9zdmciIHZlcnNpb249IjEiIHZpZXdCb3g9IjAgMCA0OCA0OCIgZW5hYmxlLWJhY2tncm91bmQ9Im5ldyAwIDAgNDggNDgiPiYjeGE7ICAgIDxnIGZpbGw9IiMzNzQ3NEYiPiYjeGE7ICAgICAgICA8cGF0aCBkPSJNMzguNSw0NC42bC00LTRsMi4xLTIuMWw0LDRjMC42LDAuNiwwLjYsMS41LDAsMi4xbDAsMEM0MC4xLDQ1LjEsMzkuMSw0NS4xLDM4LjUsNDQuNnoiLz4mI3hhOyAgICAgICAgPHBhdGggZD0iTTkuNSw0NC42bDQtNGwtMi4xLTIuMWwtNCw0Yy0wLjYsMC42LTAuNiwxLjUsMCwyLjFsMCwwQzcuOSw0NS4xLDguOSw0NS4xLDkuNSw0NC42eiIvPiYjeGE7ICAgIDwvZz4mI3hhOyAgICA8Y2lyY2xlIGZpbGw9IiNDNjI4MjgiIGN4PSIyNCIgY3k9IjI0IiByPSIyMCIvPiYjeGE7ICAgIDxjaXJjbGUgZmlsbD0iI2VlZSIgY3g9IjI0IiBjeT0iMjQiIHI9IjE2Ii8+JiN4YTsgICAgPHJlY3QgeD0iMTkiIHk9IjIyLjEiIHRyYW5zZm9ybT0ibWF0cml4KC0uNzA3IC0uNzA3IC43MDcgLS43MDcgMTIuOTA0IDYyLjUzNykiIGZpbGw9IiNFNTM5MzUiIHdpZHRoPSIuOCIgaGVpZ2h0PSIxMyIvPiYjeGE7ICAgIDxyZWN0IHg9IjIzIiB5PSIxMSIgd2lkdGg9IjIiIGhlaWdodD0iMTMiLz4mI3hhOyAgICA8cmVjdCB4PSIyNi4xIiB5PSIyMi43IiB0cmFuc2Zvcm09Im1hdHJpeCgtLjcwNyAuNzA3IC0uNzA3IC0uNzA3IDY1Ljc4NyAyNy4yNSkiIHdpZHRoPSIyLjMiIGhlaWdodD0iOS4yIi8+JiN4YTsgICAgPGNpcmNsZSBjeD0iMjQiIGN5PSIyNCIgcj0iMiIvPiYjeGE7ICAgIDxjaXJjbGUgZmlsbD0iI0M2MjgyOCIgY3g9IjI0IiBjeT0iMjQiIHI9IjEiLz4mI3hhOyAgICA8cmVjdCB4PSIyMiIgeT0iMSIgZmlsbD0iIzM3NDc0RiIgd2lkdGg9IjQiIGhlaWdodD0iMyIvPiYjeGE7ICAgIDxnIGZpbGw9IiMzNzQ3NEYiPiYjeGE7ICAgICAgICA8cGF0aCBkPSJNNDQuNCwxNi4yYzIuNS0zLjUsMi4xLTguNC0xLTExLjVjLTMuMS0zLjEtOC0zLjUtMTEuNS0xTDQ0LjQsMTYuMnoiLz4mI3hhOyAgICAgICAgPHBhdGggZD0iTTMuNiwxNi4yYy0yLjUtMy41LTIuMS04LjQsMS0xMS41YzMuMS0zLjEsOC0zLjUsMTEuNS0xTDMuNiwxNi4yeiIvPiYjeGE7ICAgIDwvZz4mI3hhOzwvc3ZnPg==;" vertex="1" parent="1">
          <mxGeometry x="1002.25" y="81.75" width="18" height="18" as="geometry" />
        </mxCell>
        <mxCell id="4y_6O7tbpXYUQsu5mCmw-361" value="7:40 AM - 7:45AM" style="text;html=1;strokeColor=none;fillColor=none;align=left;verticalAlign=middle;whiteSpace=wrap;rounded=0;" vertex="1" parent="1">
          <mxGeometry x="1035" y="75.75" width="115" height="30" as="geometry" />
        </mxCell>
        <mxCell id="4y_6O7tbpXYUQsu5mCmw-362" value="Rathana Lan" style="text;html=1;strokeColor=none;fillColor=none;align=left;verticalAlign=middle;whiteSpace=wrap;rounded=0;fontStyle=1;labelBorderColor=none;fontColor=#000066;" vertex="1" parent="1">
          <mxGeometry x="1035" y="135.75" width="115" height="30" as="geometry" />
        </mxCell>
        <mxCell id="4y_6O7tbpXYUQsu5mCmw-363" value="Preparation" style="text;html=1;strokeColor=none;fillColor=none;align=left;verticalAlign=middle;whiteSpace=wrap;rounded=0;fontStyle=1;fontColor=#FF0080;" vertex="1" parent="1">
          <mxGeometry x="1000.75" y="165.75" width="115" height="30" as="geometry" />
        </mxCell>
        <mxCell id="4y_6O7tbpXYUQsu5mCmw-364" value="Location" style="text;html=1;strokeColor=none;fillColor=none;align=left;verticalAlign=middle;whiteSpace=wrap;rounded=0;fontStyle=1;fontColor=#009900;" vertex="1" parent="1">
          <mxGeometry x="1000.75" y="249.75" width="115" height="30" as="geometry" />
        </mxCell>
        <mxCell id="4y_6O7tbpXYUQsu5mCmw-365" value="Member" style="text;html=1;strokeColor=none;fillColor=none;align=left;verticalAlign=middle;whiteSpace=wrap;rounded=0;fontStyle=1;fontColor=#FF00FF;" vertex="1" parent="1">
          <mxGeometry x="1000" y="105.75" width="115" height="30" as="geometry" />
        </mxCell>
        <mxCell id="4y_6O7tbpXYUQsu5mCmw-366" value="Time" style="text;html=1;strokeColor=none;fillColor=none;align=left;verticalAlign=middle;whiteSpace=wrap;rounded=0;fontStyle=1;fontColor=#0000CC;" vertex="1" parent="1">
          <mxGeometry x="1000" y="45.75" width="115" height="30" as="geometry" />
        </mxCell>
        <mxCell id="4y_6O7tbpXYUQsu5mCmw-367" value="" style="shape=image;verticalLabelPosition=bottom;verticalAlign=top;imageAspect=0;aspect=fixed;image=data:image/svg+xml,PHN2ZyB4bWxucz0iaHR0cDovL3d3dy53My5vcmcvMjAwMC9zdmciIHZlcnNpb249IjEiIHZpZXdCb3g9IjAgMCA0OCA0OCIgZW5hYmxlLWJhY2tncm91bmQ9Im5ldyAwIDAgNDggNDgiPiYjeGE7ICAgIDxnIGZpbGw9IiMzRjUxQjUiPiYjeGE7ICAgICAgICA8cG9seWdvbiBwb2ludHM9IjI0LDQgMzUuNywxOCAxMi4zLDE4Ii8+JiN4YTsgICAgICAgIDxyZWN0IHg9IjIwIiB5PSIxNSIgd2lkdGg9IjgiIGhlaWdodD0iMjciLz4mI3hhOyAgICA8L2c+JiN4YTs8L3N2Zz4=;" vertex="1" parent="1">
          <mxGeometry x="1001" y="195.75" width="19" height="19" as="geometry" />
        </mxCell>
        <mxCell id="4y_6O7tbpXYUQsu5mCmw-368" value="Checkup Email + Team (Critical and Temporary Control)&lt;br&gt;&lt;br&gt;Check up task and update progress (Github)&lt;br&gt;&lt;br&gt;" style="text;html=1;strokeColor=none;fillColor=none;align=left;verticalAlign=top;whiteSpace=wrap;rounded=0;fontColor=#000066;" vertex="1" parent="1">
          <mxGeometry x="1030" y="187.75" width="330" height="90" as="geometry" />
        </mxCell>
        <mxCell id="4y_6O7tbpXYUQsu5mCmw-369" value="Self table &lt;b&gt;&lt;font color=&quot;#ff0000&quot;&gt;&amp;lt;Office&amp;gt;&lt;/font&gt;&lt;/b&gt;" style="text;html=1;strokeColor=none;fillColor=none;align=left;verticalAlign=top;whiteSpace=wrap;rounded=0;fontColor=#000066;" vertex="1" parent="1">
          <mxGeometry x="1030" y="279.75" width="222" height="30" as="geometry" />
        </mxCell>
      </root>
    </mxGraphModel>
  </diagram>
</mxfile>
